<svg xmlns="http://www.w3.org/2000/svg" xmlns:lucid="lucid" width="1075.43" height="214.38"><g lucid:page-tab-id="0_0"><path d="M-314.93-498.63h1870.4v1323.2h-1870.4z" fill="#fff"/><g stroke="#000" stroke-width="2"><path d="M120 64.77c26.5 0 48 21.5 48 48s-21.5 48-48 48-48-21.5-48-48 21.5-48 48-48zm-48 48H60m108 0h12" fill="#fff"/><path d="M120 112.77c0-9.94-8.06-18-18-18s-18 8.06-18 18m72 0c0 9.95-8.06 18-18 18s-18-8.05-18-18" fill="none"/></g><path d="M1055.43 154.67h-48l24 36z" stroke="#000" stroke-width="2"/><path d="M20 52.77h50.14v120H20z" stroke="#fff" stroke-width="2" fill="#fff"/><path d="M837.64 109.3c0 25.06-20.3 45.37-45.36 45.37-25.05 0-45.35-20.3-45.35-45.36 0-25.04 20.3-45.35 45.35-45.35s45.36 20.3 45.36 45.36z" stroke="#000" stroke-width="2" fill-opacity="0"/><path d="M885.77 109.3c0 25.06-20.3 45.37-45.35 45.37s-45.36-20.3-45.36-45.36c0-25.04 20.3-45.35 45.36-45.35 25.05 0 45.35 20.3 45.35 45.36zM337.38 109.3c0 25.06-20.3 45.37-45.35 45.37s-45.36-20.3-45.36-45.36c0-25.04 20.3-45.35 45.36-45.35 25.05 0 45.35 20.3 45.35 45.36z" stroke="#000" stroke-width="2" fill-opacity="0"/><path d="M385.52 109.3c0 25.06-20.3 45.37-45.36 45.37-25.05 0-45.36-20.3-45.36-45.36 0-25.04 20.3-45.35 45.36-45.35 25.05 0 45.36 20.3 45.36 45.36z" stroke="#000" stroke-width="2" fill-opacity="0"/><path d="M181 112.77h31.96v.7h31.96" stroke="#000" stroke-width="2" fill="none"/><path d="M181.03 113.77H180v-2h1.03zM246 114.47h-1.1v-2h.94z"/><path d="M387.52 109.3h357.4" stroke="#000" stroke-width="2" fill="none"/><path d="M387.54 110.3h-1.07l.05-.97v-1.02h1.02zM745.93 109.3v1h-1.03v-2h1.08z"/><path d="M887.77 109.3h143.66v43.37" stroke="#000" stroke-width="2" fill="none"/><path d="M887.8 110.3h-1.08l.06-.97-.02-1.02h1.04zM1032.43 153.67h-2v-1.03h2z"/><path d="M486.14 20h128.52v32.77H486.14z" fill="#fff" fill-opacity="0"/><path d="M505.54 21.06l-1.6 3.77c-.13.3-.48.57-1.2.57h-8.58l-1.77 3.77c6.32 1.2 8.53 2.17 11.06 5.67 1.15 1.6 1.55 3.27 1.55 5.62 0 4.25-1.32 7-4.33 9.2-2.08 1.52-4.52 2.18-7.53 2.18-3.32 0-5.63-1.06-5.63-2.74 0-1.1.77-1.7 2-1.7 1.03 0 1.87.24 3.28 1.4 1.24 1 2.26 1.4 3.15 1.4 3.1 0 5.98-3.67 5.98-7.48 0-2.83-.97-5.05-2.96-6.64-2.08-1.7-5.18-3.1-9.43-3.1-.4 0-.52-.1-.52-.36 0-.1.04-.22.04-.22l4.83-10.5H503c1.03 0 1.43-.22 2.14-1.15M529.36 36.6c0 7.63-2.8 15.24-10 15.24-7.58 0-10-8.23-10-15.5 0-7.84 3.04-15.05 10.17-15.05 5.8 0 9.83 6.23 9.83 15.3m-4.25.23c0-9.2-1.94-14.4-5.83-14.4-3.68 0-5.67 5.23-5.67 14.22 0 9 1.95 14.04 5.76 14.04 3.76 0 5.75-5.1 5.75-13.87M551.55 36.6c0 7.63-2.8 15.24-10 15.24-7.58 0-10.02-8.23-10.02-15.5 0-7.84 3.06-15.05 10.2-15.05 5.8 0 9.82 6.23 9.82 15.3m-4.25.23c0-9.2-1.95-14.4-5.85-14.4-3.67 0-5.66 5.23-5.66 14.22 0 9 1.93 14.04 5.74 14.04 3.77 0 5.76-5.1 5.76-13.87M584.15 32.27v.7c-2.1.14-3.46 1.03-9.97 6.83l1.64 3.9c1.73 4.07 2.75 5.7 3.6 5.7.65 0 1.18-.48 1.98-1.85.22-.36.44-.76.66-1.15l.67.48c-2.04 3.72-3.15 4.83-4.92 4.83-1.27 0-2.16-.83-3.57-3.62-.8-1.55-1.95-4.3-2.66-6.25l-1.77 1.42-2.13 7.97h-3.32l6.24-23.38c.57-2.13.7-3.14.8-3.9-.1-.8-.76-1.06-2.27-1.06h-.8v-.7c2.62-.32 4.35-.63 6.96-1.2l.25.26-5.3 20.2 1.9-1.47c4.16-3.18 6.33-5.3 6.33-6.2 0-.48-.53-.8-1.64-.8h-.62v-.7h7.93M614.62 22.3v.7c-1.02.06-1.73.6-2.48 1.78l-16.52 27.24h-.84l-3.64-22.28c-1-6.2-1.15-6.42-3.63-6.73v-.7h10.64v.7c-2.8.32-3.36.77-3.36 2.27 0 .22 0 .44.04.67l2.88 19.6 9.3-15.93c1.37-2.34 2.17-4.24 2.17-5.08 0-.84-.75-1.3-2.75-1.5v-.72h8.2"/><path d="M479.27 129.98H609.3v32.37H479.26z" fill="#fff" fill-opacity="0"/><path d="M500.26 154.9l-2.4 6.08h-17.3v-.53l7.88-8.37c4.16-4.4 5.76-7.75 5.76-11.52 0-4.03-2.4-6.24-6.16-6.24-3.2 0-4.74 1.42-6.5 5.76l-.94-.22c.93-5.2 3.76-8.82 9.2-8.82 5.02 0 8.2 3.4 8.2 7.8 0 3.5-1.72 6.82-5.66 10.98l-7.3 7.8h10.35c1.85 0 2.78-.5 4.24-2.97M522.5 146.37c0 7.6-2.8 15.23-10 15.23-7.6 0-10.02-8.24-10.02-15.5 0-7.84 3.05-15.06 10.18-15.06 5.8 0 9.83 6.25 9.83 15.33m-4.26.22c0-9.22-1.95-14.4-5.84-14.4-3.68 0-5.67 5.22-5.67 14.2 0 9 1.95 14.05 5.76 14.05 3.75 0 5.74-5.1 5.74-13.86M544.68 146.37c0 7.6-2.8 15.23-10 15.23-7.58 0-10.02-8.24-10.02-15.5 0-7.84 3.06-15.06 10.2-15.06 5.8 0 9.82 6.25 9.82 15.33m-4.25.22c0-9.22-1.95-14.4-5.85-14.4-3.67 0-5.66 5.22-5.66 14.2 0 9 1.94 14.05 5.75 14.05 3.77 0 5.76-5.1 5.76-13.86M577.28 142.03v.7c-2.1.14-3.46 1.02-9.97 6.82l1.65 3.9c1.73 4.08 2.75 5.7 3.6 5.7.65 0 1.18-.47 1.98-1.85.22-.35.44-.75.66-1.15l.66.5c-2.04 3.7-3.15 4.82-4.92 4.82-1.28 0-2.17-.84-3.58-3.63-.8-1.55-1.95-4.3-2.66-6.25l-1.77 1.4-2.13 7.98h-3.32l6.24-23.38c.58-2.13.7-3.15.8-3.9-.1-.8-.75-1.06-2.26-1.06h-.8v-.7c2.62-.32 4.35-.63 6.96-1.2l.26.26-5.3 20.2 1.9-1.47c4.16-3.2 6.33-5.3 6.33-6.2 0-.5-.52-.8-1.63-.8h-.62v-.7h7.93M608.45 156.33l-.22.3c-2.35 3.3-4.3 4.75-6.38 4.75-1.15 0-1.77-.7-1.77-2.04 0-.44.14-1.2.58-2.92l2.57-10.05c.22-.9.3-1.47.3-1.7 0-.52-.4-.92-.88-.92-1.33 0-3.6 2.08-5.8 5.18-2.17 3.06-3.06 5.23-4.78 12.05h-3.32l1.2-4.12c1.94-6.73 3-11.42 3-12 0-.7-.4-1.1-.97-1.1-1.5 0-4.12 2.56-6.6 6.33-1.5 2.3-2.13 3.88-4.25 10.88h-3.32l1.9-6.38c1.78-5.9 2.45-9.56 2.45-10.1 0-.66-.62-.97-1.82-.97h-1.1v-.7l7.17-1.38.13.1-2.57 9.24c3.94-6.43 7.04-9.35 9.75-9.35 1.78 0 2.66 1.06 2.66 2.66 0 .85-.57 3.33-1.77 6.74 3.1-4.92 4.9-7.13 7.08-8.5 1.06-.67 1.9-.9 2.8-.9 1.63 0 2.56 1.2 2.56 2.8 0 .3-.1 1.02-.14 1.24l-3 11.12c-.27 1-.45 1.8-.45 2 0 .48.18.7.53.7.75 0 1.55-.7 2.88-2.35l.93-1.15"/><path d="M205.25 145.75v-59.2M205.25 145.72v1.03M205.25 86.57v-1.02M924.5 138.9V79.7M924.5 138.9v1M924.5 79.73V78.7" stroke="#000" stroke-width="2" fill="none"/><path d="M166.28 20H294.8v32.77H166.28z" fill="#fff" fill-opacity="0"/><path d="M169 28.64l-.72-.18c1.28-4.2 4.07-7.17 8.68-7.17 4.12 0 6.9 2.42 6.9 6.05 0 2.13-1.15 4.34-4.1 6.1 1.94.86 2.73 1.4 3.66 2.36 1.24 1.38 1.95 3.42 1.95 5.72 0 2.35-.75 4.52-2.04 6.2-2.12 2.84-6.33 4.12-10.27 4.12-3.23 0-4.96-.93-4.96-2.52 0-.93.8-1.6 1.82-1.6.75 0 1.46.27 2.7 1.16 1.64 1.15 2.57 1.37 3.8 1.37 3.28 0 5.76-3 5.76-6.78 0-3.36-1.55-5.53-4.6-6.42-.98-.3-2-.44-4.52-.44V36c1.68-.6 2.83-1.07 3.72-1.6 2.17-1.25 3.6-3.24 3.6-5.94 0-3-1.87-4.52-4.8-4.52-2.74 0-4.78 1.42-6.6 4.7M209.37 43.83h-4.56v7.4h-3.44v-7.4h-12.4V41l13.9-19.7h1.95V41h4.57v2.83m-8-2.84V25.8L190.72 41h10.63M230 21.06l-1.58 3.77c-.14.3-.5.57-1.2.57h-8.6l-1.76 3.77c6.33 1.2 8.55 2.17 11.07 5.67 1.15 1.6 1.55 3.27 1.55 5.62 0 4.25-1.33 7-4.34 9.2-2.08 1.52-4.52 2.18-7.53 2.18-3.3 0-5.6-1.06-5.6-2.74 0-1.1.74-1.7 1.98-1.7 1.02 0 1.86.24 3.28 1.4 1.24 1 2.26 1.4 3.14 1.4 3.1 0 5.98-3.67 5.98-7.48 0-2.83-.97-5.05-2.97-6.64-2.07-1.7-5.17-3.1-9.42-3.1-.4 0-.53-.1-.53-.36 0-.1.04-.22.04-.22l4.82-10.5h9.17c1 0 1.4-.22 2.1-1.15M264.3 32.27v.7c-2.1.14-3.47 1.03-9.98 6.83l1.64 3.9c1.73 4.07 2.75 5.7 3.6 5.7.65 0 1.2-.48 1.98-1.85l.67-1.15.67.48c-2.04 3.72-3.14 4.83-4.9 4.83-1.3 0-2.18-.83-3.6-3.62-.8-1.55-1.95-4.3-2.66-6.25l-1.76 1.42-2.13 7.97h-3.3l6.24-23.38c.57-2.13.7-3.14.8-3.9-.1-.8-.76-1.06-2.26-1.06h-.8v-.7c2.6-.32 4.34-.63 6.95-1.2l.27.26-5.32 20.2 1.9-1.47c4.17-3.18 6.34-5.3 6.34-6.2 0-.48-.53-.8-1.64-.8h-.62v-.7h7.93M294.76 22.3v.7c-1.02.06-1.73.6-2.48 1.78l-16.52 27.24h-.84l-3.63-22.28c-1.03-6.2-1.17-6.42-3.65-6.73v-.7h10.63v.7c-2.8.32-3.36.77-3.36 2.27 0 .22 0 .44.04.67l2.88 19.6 9.3-15.93c1.37-2.34 2.17-4.24 2.17-5.08 0-.84-.74-1.3-2.74-1.5v-.72h8.2"/><path d="M869.37 20H997.9v32.77H869.36z" fill="#fff" fill-opacity="0"/><path d="M872.08 28.64l-.7-.18c1.27-4.2 4.06-7.17 8.67-7.17 4.12 0 6.9 2.42 6.9 6.05 0 2.13-1.15 4.34-4.1 6.1 1.94.86 2.73 1.4 3.66 2.36 1.25 1.38 1.96 3.42 1.96 5.72 0 2.35-.75 4.52-2.04 6.2-2.12 2.84-6.33 4.12-10.27 4.12-3.23 0-4.96-.93-4.96-2.52 0-.93.8-1.6 1.8-1.6.76 0 1.47.27 2.7 1.16 1.65 1.15 2.58 1.37 3.82 1.37 3.27 0 5.75-3 5.75-6.78 0-3.36-1.55-5.53-4.6-6.42-.98-.3-2-.44-4.52-.44V36c1.68-.6 2.83-1.07 3.72-1.6 2.17-1.25 3.6-3.24 3.6-5.94 0-3-1.87-4.52-4.8-4.52-2.74 0-4.78 1.42-6.6 4.7M912.46 43.83h-4.56v7.4h-3.45v-7.4h-12.4V41l13.9-19.7h1.95V41h4.56v2.83m-8-2.84V25.8L893.8 41h10.63M933.1 21.06l-1.6 3.77c-.13.3-.48.57-1.2.57h-8.58l-1.77 3.77c6.33 1.2 8.55 2.17 11.07 5.67 1.15 1.6 1.55 3.27 1.55 5.62 0 4.25-1.33 7-4.34 9.2-2.08 1.52-4.52 2.18-7.53 2.18-3.32 0-5.62-1.06-5.62-2.74 0-1.1.75-1.7 2-1.7 1 0 1.85.24 3.27 1.4 1.24 1 2.26 1.4 3.14 1.4 3.1 0 5.97-3.67 5.97-7.48 0-2.83-.97-5.05-2.97-6.64-2.08-1.7-5.18-3.1-9.43-3.1-.4 0-.53-.1-.53-.36 0-.1.04-.22.04-.22l4.83-10.5h9.18c1.02 0 1.4-.22 2.12-1.15M967.38 32.27v.7c-2.08.14-3.46 1.03-9.97 6.83l1.65 3.9c1.73 4.07 2.75 5.7 3.6 5.7.65 0 1.2-.48 1.98-1.85l.67-1.15.66.48c-2.04 3.72-3.14 4.83-4.9 4.83-1.3 0-2.18-.83-3.6-3.62-.8-1.55-1.95-4.3-2.66-6.25l-1.77 1.42-2.13 7.97h-3.32l6.25-23.38c.57-2.13.7-3.14.8-3.9-.1-.8-.76-1.06-2.26-1.06h-.8v-.7c2.6-.32 4.34-.63 6.95-1.2l.27.26-5.33 20.2 1.9-1.47c4.17-3.18 6.34-5.3 6.34-6.2 0-.48-.52-.8-1.63-.8h-.62v-.7h7.93M997.85 22.3v.7c-1.02.06-1.73.6-2.48 1.78l-16.52 27.24H978l-3.62-22.28c-1.02-6.2-1.16-6.42-3.64-6.73v-.7h10.63v.7c-2.8.32-3.36.77-3.36 2.27 0 .22 0 .44.05.67l2.88 19.6 9.3-15.93c1.37-2.34 2.17-4.24 2.17-5.08 0-.84-.75-1.3-2.75-1.5v-.72h8.2"/><path d="M155 162.35h100.1v32.03H155z" fill="#fff" fill-opacity="0"/><path d="M161.1 164.13h11.07c6.15 0 9.2 2.26 9.2 6.64 0 2.4-1.23 3.94-2.82 5-1.38.93-3.02 1.33-4.92 1.73v.05c3.8 1.15 5.58 3.5 5.58 6.64 0 5.92-5 8.85-12.17 8.85H155v-.7c2.42-.37 2.9-.8 3.66-3.56l5.36-19.3c.3-1.12.5-2.18.5-2.85 0-1.28-.63-1.6-3.42-1.8v-.72m5.22 12.84h1.7c5.8 0 8.9-2.35 8.9-6.73 0-3.28-1.6-4.78-5.2-4.78-1.72 0-2.16 0-2.6 1.6m-3.24 11.33l-1.42 5.26c-.88 3.36-1.55 5.62-1.55 6.2 0 1.24 1.12 1.86 2.98 1.86 5.1 0 8.55-2.62 8.55-7.53 0-2.76-1.3-4.7-2.97-5.28-.9-.3-2.8-.53-5.58-.53M202.8 187.78l.63.4c-2.87 4.38-4.03 5.26-6.1 5.26-1.34 0-2.13-.75-2.13-2.12 0-.98.57-3.94 2-8.73-5.24 8.6-7.45 10.93-10.6 10.93-1.54 0-2.34-.7-2.34-2.34 0-.86.4-2.45 1.2-5.68l1.54-6.16c.36-1.46.62-2.6.62-2.97 0-.32-.22-.67-.48-.8-.4-.22-.53-.27-2.22-.27v-.62c2.53-.3 4.12-.6 6.65-1.18l.17.13-3.94 15.72c-.04.13-.13.53-.13.7 0 .67.22 1.12.88 1.12 1.5 0 3.55-2.36 6.3-6.52 2.07-3.15 2.7-4.83 4.86-10.77h3.3l-3.5 13.26c-.23.84-.85 2.92-.85 3.45 0 .5.18.76.5.76.7 0 1.4-.62 3.66-3.58M220.8 173.47l-.9 6.2h-.7c-.44-3.67-1.77-5.14-3.94-5.14-1.55 0-2.6.9-2.6 2.53 0 1.2.65 2.48 2.38 4.52 2.2 2.56 3 4.3 3 6.02 0 3.67-2.7 5.93-6.37 5.93-.75 0-1.42-.04-2.43-.44-.85-.36-1.47-.4-1.95-.4-.5 0-1 .2-1.3.92h-.7l.88-7.04h.7c.63 4.2 2.13 6.02 4.44 6.02 2.08 0 3.36-1.24 3.36-3.4 0-1.42-.75-2.93-2.48-5.1-1.9-2.4-2.8-4.38-2.8-5.8 0-2.92 2.1-4.78 5.37-4.78.75 0 1.37.13 2.48.44.84.26 1.24.3 1.6.3.66 0 .97-.17 1.32-.8h.62M250.38 193.05h-12.23v-.67c3.28-.18 4.2-1.1 4.2-3.54v-19.9c0-1.5-.4-2.16-1.32-2.16-.44 0-1.2.23-2 .54l-1.2.44v-.62l7.94-4.03.4.14v26.44c0 1.9.9 2.7 4.2 2.7v.67"/><path d="M869.37 162.35h100.1v32.03h-100.1z" fill="#fff" fill-opacity="0"/><path d="M875.46 164.13h11.07c6.16 0 9.22 2.26 9.22 6.64 0 2.4-1.24 3.94-2.84 5-1.36.93-3 1.33-4.9 1.73v.05c3.8 1.15 5.58 3.5 5.58 6.64 0 5.92-5 8.85-12.18 8.85h-12.05v-.7c2.44-.37 2.92-.8 3.68-3.56l5.36-19.3c.3-1.12.47-2.18.47-2.85 0-1.28-.62-1.6-3.4-1.8v-.72m5.22 12.84h1.67c5.8 0 8.9-2.35 8.9-6.73 0-3.28-1.6-4.78-5.18-4.78-1.74 0-2.18 0-2.62 1.6m-3.23 11.33l-1.42 5.26c-.9 3.36-1.55 5.62-1.55 6.2 0 1.24 1.1 1.86 2.97 1.86 5.1 0 8.54-2.62 8.54-7.53 0-2.76-1.3-4.7-2.97-5.28-.9-.3-2.8-.53-5.58-.53M917.18 187.78l.62.4c-2.88 4.38-4.03 5.26-6.1 5.26-1.34 0-2.14-.75-2.14-2.12 0-.98.58-3.94 2-8.73-5.23 8.6-7.44 10.93-10.6 10.93-1.54 0-2.34-.7-2.34-2.34 0-.86.4-2.45 1.2-5.68l1.55-6.16c.35-1.46.62-2.6.62-2.97 0-.32-.23-.67-.5-.8-.4-.22-.53-.27-2.2-.27v-.62c2.5-.3 4.1-.6 6.63-1.18l.18.13-3.93 15.72c-.05.13-.14.53-.14.7 0 .67.23 1.12.9 1.12 1.5 0 3.53-2.36 6.28-6.52 2.1-3.15 2.7-4.83 4.88-10.77h3.28l-3.5 13.26c-.22.84-.84 2.92-.84 3.45 0 .5.17.76.48.76.7 0 1.42-.62 3.68-3.58M935.16 173.47l-.88 6.2h-.7c-.46-3.67-1.78-5.14-3.95-5.14-1.55 0-2.62.9-2.62 2.53 0 1.2.68 2.48 2.4 4.52 2.22 2.56 3.02 4.3 3.02 6.02 0 3.67-2.7 5.93-6.38 5.93-.75 0-1.42-.04-2.44-.44-.84-.36-1.46-.4-1.95-.4-.48 0-.97.2-1.28.92h-.7l.88-7.04h.7c.62 4.2 2.13 6.02 4.43 6.02 2.1 0 3.37-1.24 3.37-3.4 0-1.42-.75-2.93-2.48-5.1-1.9-2.4-2.8-4.38-2.8-5.8 0-2.92 2.1-4.78 5.37-4.78.75 0 1.37.13 2.48.44.84.26 1.24.3 1.6.3.66 0 .97-.17 1.32-.8h.62M968.3 186.98l-2.4 6.07h-17.32v-.54l7.88-8.36c4.17-4.38 5.76-7.75 5.76-11.5 0-4.04-2.4-6.25-6.16-6.25-3.18 0-4.73 1.4-6.5 5.74l-.94-.22c.93-5.18 3.77-8.8 9.22-8.8 5 0 8.2 3.4 8.2 7.78 0 3.5-1.74 6.82-5.68 11l-7.3 7.78h10.36c1.86 0 2.8-.5 4.25-2.97"/></g></svg>