<svg xmlns="http://www.w3.org/2000/svg" xmlns:xlink="http://www.w3.org/1999/xlink" xmlns:lucid="lucid" width="2515.98" height="667"><g transform="translate(-278.19947073503863 -179)" lucid:page-tab-id="0_0"><path d="M0 0h3676.8v1323.2H0z" fill="#fff"/><path d="M303.17 560h580.5M303.2 560h-1.03" stroke="#5e5e5e" stroke-width="2" fill="none"/><path d="M898.93 560l-14.26 4.64v-9.28z" stroke="#5e5e5e" stroke-width="2" fill="#5e5e5e"/><path d="M562.17 580h79.9v74.08h-79.9z" fill="#fff" fill-opacity="0"/><path d="M612.12 594.63l-.27 1.05c-4.27.26-6.96 2.83-8.67 5.06L574.2 638.6h-1.58v-37.53c0-3.8-2.5-5.4-6.5-5.4l.26-1.04h19.32l-.27 1.05h-1.24c-4.3 0-4.6 2.43-4.6 4.6v25.7l.25.06 18.4-24.05c1.25-1.6 2.5-3.5 2.5-4.87 0-1-.92-1.45-3.42-1.45H596l.28-1.05h15.84M605.2 588.4H584.8v-3.56h20.43v3.55M634.05 627.55l-4.23 16.03s-.05.1-.05.5c0 .52.28.8.65.8.47 0 1.16-.1 2.98-2.5l.55.55c-1.44 2.2-3.95 4.97-6.18 4.97-1.53 0-1.95-1.07-1.95-2.55 0-.6.28-1.58.5-2.33h-.17c-3.35 4.28-6.23 4.88-8.04 4.88-2.92 0-4.12-2.55-4.12-5.53 0-6.13 6.13-15.42 12.82-15.42 2 0 2.97 1.1 3.07 2.14h.04l.43-1.55h3.72m-4.88 4.04c0-1.9-.56-3.3-2.32-3.3-3.16 0-5.95 4.04-7.53 7.94-.84 2.1-1.3 4.14-1.3 5.76 0 2.46 1.44 3.07 2.7 3.07 3.2 0 6.45-4.42 7.75-8.83.37-1.2.7-3.07.7-4.65"/><path d="M303.04 559.5l580.88-330.35M303.06 559.5l-.9.5" stroke="#5e5e5e" stroke-width="2" fill="none"/><path d="M897.2 221.6l-10.12 11.08-4.6-8.06z" stroke="#5e5e5e" stroke-width="2" fill="#5e5e5e"/><path d="M742.17 320h106.8v82.28h-106.8z" fill="#fff" fill-opacity="0"/><path d="M790.4 334.63L787.66 345h-1.06c.06-.84.13-1.57.13-2.3-.2-4.85-3.82-5.7-7.17-5.7h-10.5l-3.95 16.3h5.26c3.95 0 6.84-.86 8.28-6.25h1.05l-3.82 15.9h-1.1c.05-.85.38-2.82.38-3.94 0-3.08-2.7-3.34-4.73-3.34h-5.92l-4.32 16.95c-.07.28-.13.47-.13.67 0 1.05 1.05 1.77 4.14 1.77h4.4c10.37 0 14.05-3.08 16.88-10.5h1.05l-4.34 13h-37.53l.26-1.05h1.25c4.8 0 6.3-1.85 6.83-4.08l7.9-32.07c.26-1.2.33-1.9.33-2.37 0-1.58-1.05-2.3-4.93-2.3h-1.25l.26-1.05h35.1M777.33 328.4H756.9v-3.56h20.43v3.55M812.34 367.5l-4.23 16.04s-.04.1-.04.5c0 .53.28.8.65.8.48 0 1.17-.1 3-2.5l.54.55c-1.44 2.18-3.95 4.96-6.18 4.96-1.53 0-1.95-1.06-1.95-2.55 0-.6.3-1.57.52-2.3h-.18c-3.35 4.26-6.23 4.86-8.04 4.86-2.93 0-4.13-2.55-4.13-5.52 0-6.14 6.13-15.43 12.82-15.43 2 0 2.96 1.12 3.06 2.15h.04l.42-1.54h3.72m-4.88 4.06c0-1.9-.56-3.3-2.32-3.3-3.16 0-5.95 4.04-7.53 7.94-.83 2.1-1.3 4.14-1.3 5.76 0 2.47 1.45 3.07 2.7 3.07 3.2 0 6.46-4.4 7.76-8.83.37-1.2.7-3.06.7-4.64M825.25 367.1h1.72c2.93 0 2.7-3.58 4.7-6.56 1.44-2.18 3.43-4.18 6.96-4.18 2.33 0 3.67 1.12 3.67 2.74 0 1.3-.97 1.86-1.9 1.86-1.3 0-1.63-.5-1.63-1.16 0-.65.42-1.35.42-1.72 0-.23-.15-.37-.7-.37-2.33 0-4.14 2.52-5.12 6.14l-.88 3.26h3.72l-.56 1.76h-3.53l-3.67 14.22c-.33 1.25-.7 3.02-1.4 4.74-1.53 3.85-4.04 8.27-8.13 8.27-2.23 0-3.34-1.13-3.34-2.52 0-1.12.64-2.28 2-2.28 1.24 0 1.7.84 1.7 1.54 0 .88-.74.92-.74 1.48 0 .28.28.42.7.42 3.02 0 4.4-7.34 5.1-10l4.05-15.88h-3.57"/><path d="M308.5 560h213.72M308.53 560h-1.03" stroke="#0c7cba" stroke-width="2" fill="none"/><path d="M537.5 560l-14.28 4.64v-9.28z" stroke="#0c7cba" stroke-width="2" fill="#0c7cba"/><path d="M382.17 580h64.78v74.08h-64.78z" fill="#fff" fill-opacity="0"/><path d="M417 594.63l-.26 1.05h-1.25c-5 0-6.4 1.7-6.98 4.07l-8.08 32.67c-.13.52-.2 1.24-.2 1.9 0 1.38 1.25 2.17 5.13 2.17h1.12l-.28 1.04h-21.55l.26-1.05h1.25c5 0 6.37-1.85 6.9-4.08l8.08-32.67c.13-.52.27-1.1.27-1.57 0-1.45-1.12-2.5-5.06-2.5h-1.2l.28-1.05H417M411.94 588.4H391.5v-3.56h20.44v3.55M438.95 627.55l-4.23 16.03s-.05.1-.05.5c0 .52.28.8.65.8.47 0 1.16-.1 2.98-2.5l.55.55c-1.44 2.2-3.95 4.97-6.18 4.97-1.53 0-1.95-1.07-1.95-2.55 0-.6.28-1.58.5-2.33h-.17c-3.35 4.28-6.23 4.88-8.04 4.88-2.92 0-4.12-2.55-4.12-5.53 0-6.13 6.13-15.42 12.82-15.42 2 0 2.97 1.1 3.07 2.14h.04l.43-1.55h3.72m-4.88 4.04c0-1.9-.56-3.3-2.32-3.3-3.16 0-5.95 4.04-7.53 7.94-.84 2.1-1.3 4.14-1.3 5.76 0 2.46 1.44 3.07 2.7 3.07 3.2 0 6.45-4.42 7.75-8.83.37-1.2.7-3.07.7-4.65"/><path d="M922.17 380h170.4v78.18h-170.4z" fill="#fff" fill-opacity="0"/><path d="M947.64 400.35c0 1.7-1.45 3.02-3.16 3.02-1.9 0-3.15-1.32-3.15-3.02 0-1.65 1.25-3.3 3.15-3.3 1.7 0 3.16 1.65 3.16 3.3m-1.38 8.2l-7.1 27.94c-1.45 5.77-5.13 13.33-12.23 13.33-3.48 0-4.8-2.17-4.8-4 0-1.45.8-3.42 3.1-3.42 1.24 0 2.3 1 2.3 2.5 0 1-1.06 1.2-1.06 2.24 0 .26.33.65.66.65 3.02 0 5.2-5 6.77-11.3l6.05-23.86c0-.8-.66-1.45-2.1-1.45-.53 0-1.32.12-1.78.32l-.2-1.12M1001.98 394.63l-.26 1.05h-.26c-4.54 0-6.44 2.1-8.87 4.86l-12.3 14 6.3 17.48c.8 2.24 1.9 4.47 5.2 4.47h.92l-.27 1.04H974l.25-1.05h.72c2.5 0 4.4-.27 4.4-2.7 0-.53-.06-1.06-.26-1.7l-4.52-12.76-11.9 13.2c-.6.66-.78 1.26-.78 1.85 0 1.24 1.18 2.1 3.68 2.1h1.44l-.26 1.04H950.4l.26-1.05c3.55-.47 6.77-2.44 9.2-5.07l13.67-15.1-5.6-15.2c-.7-2.03-1.83-5.45-6.7-5.45h-.58l.26-1.05h18.6l-.25 1.05H978c-1.97 0-3.42.26-3.42 2.3 0 .53.13 1.12.4 1.84l3.94 11.76 10.77-12.1c.6-.7.98-1.5.98-2.22-.07-1.05-.85-1.58-2.96-1.58h-.6l.27-1.05h14.58M1018.77 426.95l-1.1 6.78h-.7c0-2.97-1.68-5.57-4.3-5.57-1.15 0-2.36.8-2.36 2.7 0 2.55 6.24 6.82 6.24 11.24 0 2.88-2.23 5.8-6.27 5.8-1.58 0-4.55-.93-5.1-.93-.43 0-.85.2-1.4.98h-.8l1.17-7.25h.74c0 2.93 1.9 6.04 4.83 6.04 2.75 0 3.4-2.32 3.4-4.13 0-3.8-6.04-6.13-6.04-10.68 0-3.67 2.74-4.97 5.3-4.97 2 0 2.93.93 4.27.93.5 0 1.03-.47 1.4-.93h.74M1062.57 394.63l-.26 1.05h-1.24c-5 0-6.37 1.7-6.96 4.07l-8.1 32.67c-.12.52-.18 1.24-.18 1.9 0 1.38 1.25 2.17 5.12 2.17h1.12l-.26 1.04h-21.56l.26-1.05h1.25c5 0 6.38-1.85 6.9-4.08l8.1-32.67c.12-.52.25-1.1.25-1.57 0-1.45-1.12-2.5-5.06-2.5h-1.18l.26-1.05h21.55M1057.5 388.4h-20.42v-3.56h20.43v3.55M1084.52 427.55l-4.23 16.03s-.05.1-.05.5c0 .52.28.8.65.8.46 0 1.16-.1 2.97-2.5l.56.55c-1.44 2.2-3.95 4.97-6.18 4.97-1.53 0-1.95-1.07-1.95-2.55 0-.6.28-1.58.5-2.33h-.18c-3.34 4.28-6.22 4.88-8.04 4.88-2.92 0-4.13-2.55-4.13-5.53 0-6.13 6.13-15.42 12.82-15.42 2 0 2.98 1.1 3.07 2.14h.05l.4-1.55h3.72m-4.88 4.04c0-1.9-.55-3.3-2.32-3.3-3.16 0-5.95 4.04-7.53 7.94-.84 2.1-1.3 4.14-1.3 5.76 0 2.46 1.43 3.07 2.7 3.07 3.2 0 6.44-4.42 7.75-8.83.37-1.2.7-3.07.7-4.65"/><path d="M648.33 559.17l.8-1.22 1.36-2.36 1.34-2.77 1.34-3.24 1.3-3.9 1.27-4.68 1.15-5.77.96-7.2.62-9.13.04-11.65-.9-14.77-1.08-9.97-.05-.37-.1-.53-.2-.8-.4-1.25-.8-2.18-1.82-4.1-4.16-8.13-8.18-14.02L630 434.72l-9.9-13.3-7.6-9.1-5.57-5.96M648.35 559.14l-.57.86" stroke="#c92d39" stroke-width="2" fill="none"/><path d="M595.03 396.9l14.05 5.25-5.77 7.26z" stroke="#c92d39" stroke-width="2" fill="#c92d39"/><path d="M682.17 446.45c0-3.3 2.7-6 6-6h48c3.3 0 6 2.7 6 6v48c0 3.32-2.7 6-6 6h-48c-3.3 0-6-2.68-6-6z" stroke="#000" stroke-opacity="0" stroke-width="3" fill="#ffbbb1"/><path d="M696.94 440.45h30.46v57.68h-30.46z" fill="#fff" fill-opacity="0"/><path d="M726.58 449.84c0 1.38-1 3.02-3.02 3.02-4.4 0-.86-4.27-6.84-4.27-2.5 0-5.9 1.9-5.9 4.4 0 6.24 14.7 9.98 14.7 19.25 0 2.17-.32 5.2-1.18 7.36-2.3 5.66-7.62 10.92-15.18 10.92-6.37 0-9.6-4.27-9.6-9.53 0-7.83 6.5-16.5 15.72-17.43-3.03-3.02-6.84-5.06-6.84-8.6 0-6.3 6.64-9.07 10.98-9.07 3.28 0 7.16 1.05 7.16 3.94M720 472.12c0-2.9-.98-6.57-3.54-6.57-5.65 0-11.77 10.5-11.77 16.36 0 3.62 1.77 6.7 4.6 6.7 5.9 0 10.7-10.24 10.7-16.48"/><path d="M902.16 559l-2.04-320.5M902.16 558.97V560" stroke="#5e5e5e" stroke-width="2" fill="none"/><path d="M900.02 223.24l4.73 14.23-9.27.06z" stroke="#5e5e5e" stroke-width="2" fill="#5e5e5e"/><path d="M1101 560h580.5M1101.03 560H1100" stroke="#5e5e5e" stroke-width="2" fill="none"/><path d="M1696.76 560l-14.26 4.64v-9.28z" stroke="#5e5e5e" stroke-width="2" fill="#5e5e5e"/><path d="M1360 580h79.9v74.08H1360z" fill="#fff" fill-opacity="0"/><path d="M1409.95 594.63l-.27 1.05c-4.27.26-6.96 2.83-8.67 5.06l-28.97 37.85h-1.58v-37.53c0-3.8-2.5-5.4-6.5-5.4l.26-1.04h19.33l-.27 1.05h-1.24c-4.28 0-4.6 2.43-4.6 4.6v25.7l.26.06 18.4-24.05c1.25-1.6 2.5-3.5 2.5-4.87 0-1-.92-1.45-3.42-1.45h-1.32l.27-1.05h15.85M1403.04 588.4h-20.43v-3.56h20.44v3.55M1431.88 627.55l-4.23 16.03s-.05.1-.05.5c0 .52.28.8.65.8.47 0 1.16-.1 2.98-2.5l.55.55c-1.44 2.2-3.95 4.97-6.18 4.97-1.53 0-1.95-1.07-1.95-2.55 0-.6.28-1.58.5-2.33h-.17c-3.35 4.28-6.23 4.88-8.04 4.88-2.93 0-4.13-2.55-4.13-5.53 0-6.13 6.14-15.42 12.83-15.42 2 0 2.97 1.1 3.07 2.14h.04l.42-1.55h3.72m-4.88 4.04c0-1.9-.56-3.3-2.32-3.3-3.16 0-5.95 4.04-7.53 7.94-.84 2.1-1.3 4.14-1.3 5.76 0 2.46 1.44 3.07 2.7 3.07 3.2 0 6.45-4.42 7.75-8.83.37-1.2.7-3.07.7-4.65"/><path d="M1100.93 559.64l861.8-332.97M1100.96 559.63l-.96.37" stroke="#5e5e5e" stroke-width="2" fill="none"/><path d="M1976.98 221.17l-11.64 9.46-3.34-8.65z" stroke="#5e5e5e" stroke-width="2" fill="#5e5e5e"/><path d="M1540 320h106.8v82.28H1540z" fill="#fff" fill-opacity="0"/><path d="M1588.24 334.63l-2.76 10.38h-1.06c.07-.84.14-1.57.14-2.3-.2-4.85-3.82-5.7-7.17-5.7h-10.52l-3.94 16.3h5.25c3.94 0 6.83-.86 8.27-6.25h1.05l-3.8 15.9h-1.12c.06-.85.4-2.82.4-3.94 0-3.08-2.7-3.34-4.74-3.34h-5.92L1558 372.6c-.06.28-.12.47-.12.67 0 1.05 1.05 1.77 4.14 1.77h4.4c10.38 0 14.06-3.08 16.9-10.5h1.04l-4.34 13h-37.52l.26-1.05h1.25c4.8 0 6.32-1.85 6.84-4.08l7.9-32.07c.25-1.2.32-1.9.32-2.37 0-1.58-1.05-2.3-4.93-2.3h-1.25l.26-1.05h35.1M1575.16 328.4h-20.44v-3.56h20.44v3.55M1610.17 367.5l-4.23 16.04s-.05.1-.05.5c0 .53.27.8.64.8.47 0 1.16-.1 2.98-2.5l.55.55c-1.44 2.18-3.95 4.96-6.18 4.96-1.54 0-1.96-1.06-1.96-2.55 0-.6.28-1.57.5-2.3h-.17c-3.35 4.26-6.23 4.86-8.04 4.86-2.93 0-4.14-2.55-4.14-5.52 0-6.14 6.13-15.43 12.82-15.43 2 0 2.97 1.12 3.06 2.15h.05l.42-1.54h3.72m-4.88 4.06c0-1.9-.57-3.3-2.34-3.3-3.15 0-5.94 4.04-7.52 7.94-.84 2.1-1.3 4.14-1.3 5.76 0 2.47 1.44 3.07 2.7 3.07 3.2 0 6.45-4.4 7.75-8.83.36-1.2.7-3.06.7-4.64M1623.08 367.1h1.72c2.93 0 2.7-3.58 4.7-6.56 1.43-2.18 3.43-4.18 6.96-4.18 2.33 0 3.67 1.12 3.67 2.74 0 1.3-.97 1.86-1.9 1.86-1.3 0-1.63-.5-1.63-1.16 0-.65.42-1.35.42-1.72 0-.23-.14-.37-.7-.37-2.32 0-4.13 2.52-5.1 6.14l-.9 3.26h3.73l-.56 1.76h-3.54l-3.67 14.22c-.34 1.25-.7 3.02-1.4 4.74-1.54 3.85-4.05 8.27-8.14 8.27-2.23 0-3.34-1.13-3.34-2.52 0-1.12.65-2.28 2-2.28 1.25 0 1.72.84 1.72 1.54 0 .88-.75.92-.75 1.48 0 .28.27.42.7.42 3 0 4.4-7.34 5.1-10l4.04-15.88h-3.58"/><path d="M1106.13 560.6l219.2 168.14M1106.15 560.62l-.82-.62" stroke="#0c7cba" stroke-width="2" fill="none"/><path d="M1337.43 738.03l-14.14-5 5.63-7.36z" stroke="#0c7cba" stroke-width="2" fill="#0c7cba"/><path d="M1120 648.66h64.78v74.08H1120z" fill="#fff" fill-opacity="0"/><path d="M1154.83 663.3l-.26 1.04h-1.25c-5 0-6.38 1.7-6.97 4.08l-8.08 32.66c-.13.52-.2 1.25-.2 1.9 0 1.38 1.25 2.17 5.13 2.17h1.12l-.27 1.05h-21.55l.26-1.05h1.25c5 0 6.38-1.84 6.9-4.07l8.1-32.66c.12-.53.26-1.12.26-1.58 0-1.45-1.12-2.5-5.07-2.5h-1.2l.27-1.05h21.56M1149.77 657.05h-20.44v-3.55h20.44v3.55M1176.78 696.22l-4.23 16.02s-.05.1-.05.52c0 .5.28.8.65.8.47 0 1.16-.1 2.98-2.52l.55.55c-1.44 2.18-3.95 4.97-6.18 4.97-1.53 0-1.95-1.07-1.95-2.56 0-.6.28-1.57.5-2.3h-.17c-3.35 4.26-6.23 4.87-8.04 4.87-2.93 0-4.13-2.56-4.13-5.53 0-6.14 6.14-15.43 12.83-15.43 2 0 2.97 1.13 3.07 2.15h.04l.42-1.53h3.72m-4.88 4.04c0-1.9-.56-3.3-2.33-3.3-3.15 0-5.94 4.04-7.52 7.94-.84 2.1-1.3 4.14-1.3 5.76 0 2.47 1.44 3.07 2.7 3.07 3.2 0 6.45-4.4 7.75-8.83.37-1.2.7-3.06.7-4.64"/><path d="M1820 402.28h170.4v78.17H1820z" fill="#fff" fill-opacity="0"/><path d="M1845.47 422.62c0 1.7-1.45 3.03-3.16 3.03-1.9 0-3.14-1.32-3.14-3.03 0-1.64 1.25-3.28 3.15-3.28 1.72 0 3.17 1.64 3.17 3.28m-1.38 8.22l-7.1 27.93c-1.46 5.78-5.14 13.34-12.24 13.34-3.48 0-4.8-2.16-4.8-4 0-1.45.8-3.42 3.1-3.42 1.24 0 2.3 1 2.3 2.5 0 1-1.06 1.18-1.06 2.23 0 .28.33.67.66.67 3.02 0 5.2-5 6.77-11.3l6.05-23.86c0-.78-.66-1.43-2.1-1.43-.53 0-1.32.13-1.78.33l-.2-1.12M1899.8 416.9l-.25 1.06h-.26c-4.55 0-6.45 2.1-8.88 4.86l-12.3 14 6.32 17.48c.78 2.23 1.9 4.47 5.2 4.47h.9l-.26 1.05h-18.46l.26-1.05h.72c2.5 0 4.4-.26 4.4-2.7 0-.52-.06-1.05-.26-1.7l-4.53-12.75-11.9 13.2c-.58.66-.77 1.25-.77 1.85 0 1.24 1.18 2.1 3.68 2.1h1.45l-.26 1.05h-16.37l.26-1.05c3.54-.46 6.76-2.43 9.2-5.06l13.66-15.1-5.6-15.2c-.7-2.02-1.83-5.44-6.7-5.44h-.58l.26-1.05h18.6l-.26 1.06h-1.25c-1.97 0-3.42.26-3.42 2.3 0 .52.14 1.12.4 1.84l3.95 11.76 10.77-12.1c.6-.7 1-1.5 1-2.22-.08-1.06-.86-1.58-2.97-1.58h-.6l.27-1.05h14.6M1916.6 449.23l-1.1 6.78h-.7c0-2.96-1.68-5.57-4.3-5.57-1.15 0-2.36.8-2.36 2.7 0 2.55 6.23 6.83 6.23 11.24 0 2.88-2.23 5.8-6.27 5.8-1.58 0-4.55-.92-5.1-.92-.43 0-.85.2-1.4.98h-.8l1.17-7.25h.74c0 2.93 1.9 6.04 4.84 6.04 2.74 0 3.4-2.32 3.4-4.14 0-3.8-6.05-6.13-6.05-10.68 0-3.67 2.73-4.97 5.3-4.97 2 0 2.92.93 4.26.93.5 0 1.03-.47 1.4-.93h.74M1960.4 416.9l-.26 1.06h-1.25c-5 0-6.38 1.7-6.97 4.07l-8.1 32.66c-.12.52-.18 1.24-.18 1.9 0 1.38 1.25 2.17 5.12 2.17h1.12l-.27 1.05h-21.56l.26-1.05h1.25c5 0 6.38-1.84 6.9-4.08l8.1-32.67c.12-.52.25-1.1.25-1.57 0-1.45-1.12-2.5-5.06-2.5h-1.18l.25-1.05h21.55M1955.34 410.66h-20.43v-3.55h20.44v3.56M1982.35 449.83l-4.23 16.03s-.04.1-.04.5c0 .52.28.8.65.8.46 0 1.16-.1 2.97-2.5l.56.55c-1.44 2.2-3.95 4.98-6.18 4.98-1.53 0-1.95-1.07-1.95-2.55 0-.6.28-1.58.5-2.33h-.18c-3.34 4.28-6.22 4.88-8.04 4.88-2.9 0-4.12-2.55-4.12-5.53 0-6.13 6.13-15.42 12.82-15.42 2 0 2.98 1.1 3.07 2.13h.05l.4-1.53h3.73m-4.88 4.04c0-1.9-.55-3.3-2.32-3.3-3.16 0-5.95 4.05-7.53 7.95-.83 2.1-1.3 4.13-1.3 5.76 0 2.46 1.44 3.07 2.7 3.07 3.2 0 6.45-4.42 7.76-8.83.37-1.2.7-3.07.7-4.65"/><path d="M1446.14 559.15l7.74-12.28 3.7-7.93 1.75-5.53.8-4.33.22-3.96-.35-5.1-.05-.38-.1-.5-.2-.7-.36-1-.68-1.57-1.33-2.58-2.82-4.64-6.12-8.67-11.38-14.08-13.88-15.03-11.3-10.7-3.4-2.8M1446.16 559.13l-.55.87" stroke="#c92d39" stroke-width="2" fill="none"/><path d="M1395.97 448.54l14.33 4.46-5.36 7.56z" stroke="#c92d39" stroke-width="2" fill="#c92d39"/><path d="M1480 486c0-3.3 2.7-6 6-6h48c3.3 0 6 2.7 6 6v48c0 3.3-2.7 6-6 6h-48c-3.3 0-6-2.7-6-6z" stroke="#000" stroke-opacity="0" stroke-width="3" fill="#ffbbb1"/><path d="M1494.77 480h30.46v57.67h-30.46z" fill="#fff" fill-opacity="0"/><path d="M1524.4 489.38c0 1.38-.98 3.03-3 3.03-4.42 0-.87-4.26-6.85-4.26-2.5 0-5.9 1.9-5.9 4.4 0 6.24 14.7 10 14.7 19.25 0 2.16-.32 5.2-1.18 7.35-2.3 5.66-7.62 10.9-15.18 10.9-6.38 0-9.6-4.26-9.6-9.52 0-7.82 6.5-16.5 15.7-17.4-3.02-3.03-6.83-5.07-6.83-8.62 0-6.3 6.64-9.06 10.98-9.06 3.28 0 7.16 1.05 7.16 3.94m-6.56 22.28c0-2.9-1-6.57-3.55-6.57-5.66 0-11.78 10.5-11.78 16.35 0 3.62 1.78 6.7 4.6 6.7 5.92 0 10.72-10.24 10.72-16.5"/><path d="M1700.64 559.23l267.6-324.95M1700.65 559.2l-.65.8" stroke="#5e5e5e" stroke-width="2" fill="none"/><path d="M1977.94 222.5l-5.5 13.96-7.14-5.9z" stroke="#5e5e5e" stroke-width="2" fill="#5e5e5e"/><path d="M2061 561.86h580.5M2061.03 561.86H2060" stroke="#5e5e5e" stroke-width="2" fill="none"/><path d="M2656.76 561.86l-14.26 4.63v-9.28z" stroke="#5e5e5e" stroke-width="2" fill="#5e5e5e"/><path d="M2320 581.86h79.9v74.07H2320z" fill="#fff" fill-opacity="0"/><path d="M2369.95 596.48l-.27 1.06c-4.27.26-6.96 2.82-8.67 5.06l-28.97 37.85h-1.58v-37.52c0-3.82-2.5-5.4-6.5-5.4l.26-1.05h19.33l-.27 1.06h-1.24c-4.28 0-4.6 2.43-4.6 4.6v25.7l.26.06 18.4-24.05c1.25-1.58 2.5-3.5 2.5-4.87 0-.98-.92-1.44-3.42-1.44h-1.32l.27-1.06h15.85M2363.04 590.24h-20.43v-3.55h20.44v3.54M2391.88 629.4l-4.23 16.04s-.05.1-.05.5c0 .52.28.8.65.8.47 0 1.16-.1 2.98-2.5l.55.55c-1.44 2.17-3.95 4.96-6.18 4.96-1.53 0-1.95-1.07-1.95-2.56 0-.6.28-1.58.5-2.32h-.17c-3.35 4.28-6.23 4.88-8.04 4.88-2.93 0-4.13-2.56-4.13-5.53 0-6.13 6.14-15.43 12.83-15.43 2 0 2.97 1.12 3.07 2.14h.04l.42-1.53h3.72m-4.88 4.05c0-1.9-.56-3.3-2.32-3.3-3.16 0-5.95 4.04-7.53 7.95-.84 2.1-1.3 4.13-1.3 5.76 0 2.46 1.44 3.06 2.7 3.06 3.2 0 6.45-4.4 7.75-8.82.37-1.2.7-3.07.7-4.65"/><path d="M2060.8 561.27L2504.38 237M2060.83 561.25l-.83.6" stroke="#5e5e5e" stroke-width="2" fill="none"/><path d="M2516.7 228l-8.8 12.16-5.46-7.5z" stroke="#5e5e5e" stroke-width="2" fill="#5e5e5e"/><path d="M2261.8 321.86h106.8v82.27h-106.8z" fill="#fff" fill-opacity="0"/><path d="M2310.04 336.48l-2.76 10.4h-1.05c.06-.87.13-1.6.13-2.3-.2-4.88-3.8-5.73-7.17-5.73h-10.52l-3.94 16.3h5.25c3.94 0 6.83-.86 8.27-6.24h1.06l-3.82 15.9h-1.1c.06-.85.4-2.82.4-3.93 0-3.1-2.7-3.36-4.74-3.36h-5.92l-4.33 16.97c-.06.26-.12.46-.12.66 0 1.05 1.05 1.77 4.14 1.77h4.4c10.38 0 14.06-3.1 16.9-10.5h1.04l-4.34 13h-37.52l.26-1.05h1.25c4.8 0 6.32-1.84 6.84-4.08l7.9-32.07c.25-1.18.32-1.9.32-2.36 0-1.58-1.05-2.3-4.93-2.3h-1.25l.26-1.06h35.1M2296.96 330.24h-20.44v-3.55h20.44v3.54M2331.97 369.37l-4.23 16.03s-.05.1-.05.5c0 .52.27.8.64.8.47 0 1.16-.1 2.98-2.5l.55.55c-1.44 2.18-3.95 4.97-6.18 4.97-1.54 0-1.96-1.07-1.96-2.56 0-.6.28-1.57.5-2.32h-.17c-3.35 4.28-6.23 4.88-8.04 4.88-2.93 0-4.13-2.56-4.13-5.53 0-6.14 6.13-15.43 12.82-15.43 2 0 2.97 1.1 3.07 2.13h.03l.42-1.53h3.72m-4.88 4.04c0-1.9-.57-3.3-2.33-3.3-3.16 0-5.95 4.06-7.53 7.96-.84 2.1-1.3 4.13-1.3 5.76 0 2.46 1.44 3.07 2.7 3.07 3.2 0 6.45-4.43 7.75-8.84.36-1.2.7-3.07.7-4.65M2344.88 368.95h1.72c2.93 0 2.7-3.58 4.7-6.55 1.44-2.18 3.43-4.18 6.96-4.18 2.33 0 3.68 1.1 3.68 2.74 0 1.3-.98 1.86-1.9 1.86-1.3 0-1.64-.5-1.64-1.16 0-.65.42-1.35.42-1.72 0-.23-.14-.37-.7-.37-2.32 0-4.13 2.5-5.1 6.13l-.9 3.25h3.73l-.56 1.77h-3.54l-3.67 14.2c-.34 1.27-.7 3.03-1.4 4.75-1.54 3.86-4.05 8.27-8.14 8.27-2.23 0-3.34-1.1-3.34-2.5 0-1.12.65-2.28 2-2.28 1.25 0 1.72.83 1.72 1.53 0 .87-.75.92-.75 1.48 0 .28.27.42.7.42 3 0 4.4-7.34 5.1-10l4.04-15.88h-3.57"/><path d="M2066.3 561.6l215.8-56.88M2066.33 561.6l-1 .26" stroke="#0c7cba" stroke-width="2" fill="none"/><path d="M2296.87 500.82l-12.6 8.12-2.38-8.96z" stroke="#0c7cba" stroke-width="2" fill="#0c7cba"/><path d="M2197.02 482.3h64.78v74.1h-64.78z" fill="#fff" fill-opacity="0"/><path d="M2231.85 496.94l-.27 1.05h-1.24c-5 0-6.38 1.7-6.97 4.07l-8.08 32.66c-.15.52-.2 1.25-.2 1.9 0 1.38 1.24 2.17 5.1 2.17h1.13l-.26 1.05h-21.56l.28-1.05h1.25c5 0 6.37-1.84 6.9-4.07l8.08-32.66c.14-.53.27-1.12.27-1.58 0-1.46-1.12-2.5-5.06-2.5h-1.17l.26-1.06h21.55M2226.8 490.7h-20.45v-3.55h20.44v3.55M2253.8 529.86l-4.23 16.03s-.05.1-.05.5c0 .52.28.8.65.8.46 0 1.16-.1 2.97-2.5l.56.54c-1.44 2.2-3.95 4.97-6.18 4.97-1.53 0-1.95-1.05-1.95-2.54 0-.6.28-1.58.5-2.32h-.18c-3.35 4.27-6.23 4.87-8.04 4.87-2.93 0-4.14-2.54-4.14-5.5 0-6.15 6.13-15.44 12.83-15.44 2 0 2.97 1.1 3.06 2.14h.06l.42-1.54h3.7m-4.87 4.05c0-1.9-.54-3.3-2.3-3.3-3.17 0-5.96 4.05-7.54 7.95-.83 2.1-1.3 4.14-1.3 5.76 0 2.48 1.44 3.08 2.7 3.08 3.2 0 6.46-4.4 7.76-8.83.37-1.2.7-3.06.7-4.64"/><path d="M2600 325.96h170.4v78.17H2600z" fill="#fff" fill-opacity="0"/><path d="M2625.47 346.3c0 1.7-1.45 3.03-3.16 3.03-1.9 0-3.14-1.32-3.14-3.03 0-1.64 1.25-3.28 3.15-3.28 1.72 0 3.17 1.64 3.17 3.28m-1.38 8.22l-7.1 27.93c-1.46 5.78-5.14 13.34-12.24 13.34-3.48 0-4.8-2.18-4.8-4.02 0-1.45.8-3.42 3.1-3.42 1.24 0 2.3 1 2.3 2.5 0 .98-1.06 1.18-1.06 2.23 0 .26.33.65.66.65 3.02 0 5.2-5 6.77-11.3l6.05-23.86c0-.8-.66-1.45-2.1-1.45-.53 0-1.32.13-1.78.32l-.2-1.1M2679.8 340.6l-.25 1.04h-.26c-4.55 0-6.45 2.1-8.88 4.86l-12.3 14 6.32 17.48c.78 2.23 1.9 4.47 5.2 4.47h.9l-.26 1.05h-18.46l.26-1.05h.72c2.5 0 4.4-.27 4.4-2.7 0-.52-.06-1.05-.26-1.7l-4.53-12.75-11.9 13.2c-.58.66-.77 1.25-.77 1.84 0 1.25 1.18 2.1 3.68 2.1h1.45l-.26 1.06h-16.37l.26-1.05c3.54-.46 6.76-2.43 9.2-5.06l13.66-15.13-5.6-15.18c-.7-2.05-1.83-5.46-6.7-5.46h-.58l.26-1.05h18.6l-.26 1.04h-1.25c-1.97 0-3.42.26-3.42 2.3 0 .52.14 1.1.4 1.84l3.95 11.76 10.77-12.1c.6-.7 1-1.5 1-2.23-.08-1.04-.86-1.56-2.97-1.56h-.6l.27-1.05h14.6M2696.6 372.9l-1.1 6.8h-.7c0-2.98-1.68-5.6-4.3-5.6-1.15 0-2.36.8-2.36 2.7 0 2.56 6.23 6.84 6.23 11.25 0 2.88-2.23 5.8-6.27 5.8-1.58 0-4.55-.92-5.1-.92-.43 0-.85.2-1.4.98h-.8l1.17-7.24h.74c0 2.93 1.9 6.04 4.84 6.04 2.74 0 3.4-2.32 3.4-4.14 0-3.8-6.05-6.13-6.05-10.68 0-3.67 2.73-4.97 5.3-4.97 2 0 2.92.93 4.26.93.5 0 1.03-.46 1.4-.92h.74M2740.4 340.6l-.26 1.04h-1.25c-5 0-6.38 1.7-6.97 4.07l-8.1 32.67c-.12.53-.18 1.25-.18 1.9 0 1.4 1.25 2.18 5.12 2.18h1.12l-.27 1.05h-21.56l.26-1.05h1.25c5 0 6.38-1.84 6.9-4.08l8.1-32.66c.12-.5.25-1.1.25-1.57 0-1.44-1.12-2.5-5.06-2.5h-1.18l.25-1.04h21.55M2735.34 334.34h-20.43v-3.55h20.44v3.54M2762.35 373.5l-4.23 16.04s-.04.1-.04.5c0 .52.28.8.65.8.46 0 1.16-.1 2.97-2.5l.56.55c-1.44 2.17-3.95 4.96-6.18 4.96-1.53 0-1.95-1.07-1.95-2.56 0-.6.28-1.58.5-2.32h-.18c-3.34 4.28-6.22 4.88-8.04 4.88-2.9 0-4.12-2.56-4.12-5.53 0-6.13 6.13-15.42 12.82-15.42 2 0 2.98 1.12 3.07 2.14h.05l.4-1.53h3.73m-4.88 4.05c0-1.9-.55-3.3-2.32-3.3-3.16 0-5.95 4.05-7.53 7.95-.83 2.1-1.3 4.13-1.3 5.76 0 2.46 1.44 3.07 2.7 3.07 3.2 0 6.45-4.42 7.76-8.83.37-1.2.7-3.07.7-4.65"/><path d="M2405.6 560.85v-3.33l-.22-4.34-.5-4.4-.73-4.46-1.02-4.56-1.33-4.7-1.67-4.85-2.06-5.06-2.53-5.33-3.07-5.65-3.76-6.1-4.66-6.7-6.08-7.8-17-19.44-.56-.78-.3-.5-.2-.36-.13-.27-.08-.22-.07-.17-.04-.13-.04-.12-.02-.1v-.06l-.02-.1v-.12l-.04-.1-.03-.12-.04-.12-.03-.14-.06-.13-.06-.16-.1-.15-.1-.18-.12-.2-.16-.22-.2-.25-.25-.3-.3-.3-.4-.4-.53-.46-.7-.57-.97-.7-1.4-.92-2.06-1.25-3.33-1.78-5.86-2.82-12.58-5.33-63.53-24.24M2405.6 560.83v1.02" stroke="#c92d39" stroke-width="2" fill="none"/><path d="M2252.52 424.53l14.96 1.14-3.52 8.57z" stroke="#c92d39" stroke-width="2" fill="#c92d39"/><path d="M2380 428.3c0-3.3 2.7-6 6-6h48c3.3 0 6 2.7 6 6v48c0 3.32-2.7 6-6 6h-48c-3.3 0-6-2.68-6-6z" stroke="#000" stroke-opacity="0" stroke-width="3" fill="#ffbbb1"/><path d="M2394.77 422.3h30.46V480h-30.46z" fill="#fff" fill-opacity="0"/><path d="M2424.4 431.7c0 1.38-.98 3.02-3 3.02-4.42 0-.87-4.27-6.85-4.27-2.5 0-5.9 1.9-5.9 4.4 0 6.24 14.7 10 14.7 19.26 0 2.17-.32 5.2-1.18 7.37-2.3 5.65-7.62 10.9-15.18 10.9-6.38 0-9.6-4.27-9.6-9.52 0-7.82 6.5-16.5 15.7-17.42-3.02-3.02-6.83-5.06-6.83-8.6 0-6.32 6.64-9.08 10.98-9.08 3.28 0 7.16 1.05 7.16 3.95m-6.56 22.27c0-2.9-1-6.57-3.55-6.57-5.66 0-11.78 10.52-11.78 16.37 0 3.6 1.78 6.7 4.6 6.7 5.92 0 10.72-10.25 10.72-16.5"/><path d="M2659.6 560.93l-135.7-323.87M2659.6 560.9l.4.96" stroke="#5e5e5e" stroke-width="2" fill="none"/><path d="M2518 222.98l9.8 11.37-8.56 3.58z" stroke="#5e5e5e" stroke-width="2" fill="#5e5e5e"/><path d="M482.12 759.74c0-3.3 2.7-6 6-6h228c3.3 0 6 2.7 6 6v54c0 3.3-2.7 6-6 6h-228c-3.3 0-6-2.7-6-6z" stroke="#000" stroke-opacity="0" stroke-width="3" fill="#fff" fill-opacity="0"/><use xlink:href="#a" transform="matrix(1,0,0,1,487.1196369214101,758.7389363915863) translate(43.45679012345684 39.055555555555536)"/><use xlink:href="#b" transform="matrix(1,0,0,1,487.1196369214101,758.7389363915863) translate(161.85185185185182 39.055555555555536)"/><path d="M1360 759.74c0-3.3 2.7-6 6-6h228c3.3 0 6 2.7 6 6v54c0 3.3-2.7 6-6 6h-228c-3.3 0-6-2.7-6-6z" stroke="#000" stroke-opacity="0" stroke-width="3" fill="#fff" fill-opacity="0"/><use xlink:href="#a" transform="matrix(1,0,0,1,1365,758.7389363915863) translate(43.45679012345684 39.055555555555536)"/><use xlink:href="#c" transform="matrix(1,0,0,1,1365,758.7389363915863) translate(161.85185185185182 39.055555555555536)"/><path d="M2261.8 766c0-3.3 2.7-6 6-6h228c3.3 0 6 2.7 6 6v54c0 3.3-2.7 6-6 6h-228c-3.3 0-6-2.7-6-6z" stroke="#000" stroke-opacity="0" stroke-width="3" fill="#fff" fill-opacity="0"/><use xlink:href="#a" transform="matrix(1,0,0,1,2266.8005292649977,765) translate(43.45679012345684 39.055555555555536)"/><use xlink:href="#d" transform="matrix(1,0,0,1,2266.8005292649977,765) translate(161.85185185185182 39.055555555555536)"/><path d="M348 220c0 2.2-1.8 4-4 4s-4-1.8-4-4 1.8-4 4-4 4 1.8 4 4zm16.03 0c0 2.2-1.8 4-4 4s-4-1.8-4-4 1.8-4 4-4 4 1.8 4 4zm16.04 0c0 2.2-1.8 4-4 4s-4-1.8-4-4 1.8-4 4-4 4 1.8 4 4zm16.03 0c0 2.2-1.8 4-4 4s-4-1.8-4-4 1.8-4 4-4 4 1.8 4 4zm16.04 0c0 2.2-1.8 4-4 4s-4-1.8-4-4 1.8-4 4-4 4 1.8 4 4zm16.03 0c0 2.2-1.8 4-4 4s-4-1.8-4-4 1.8-4 4-4 4 1.8 4 4zm16.04 0c0 2.2-1.78 4-4 4-2.2 0-4-1.8-4-4s1.8-4 4-4c2.22 0 4 1.8 4 4zm16.04 0c0 2.2-1.8 4-4 4s-4-1.8-4-4 1.8-4 4-4 4 1.8 4 4zm16.04 0c0 2.2-1.8 4-4 4s-4-1.8-4-4 1.8-4 4-4 4 1.8 4 4zm16.03 0c0 2.2-1.78 4-4 4-2.2 0-4-1.8-4-4s1.8-4 4-4c2.22 0 4 1.8 4 4zm16.05 0c0 2.2-1.8 4-4 4s-4-1.8-4-4 1.8-4 4-4 4 1.8 4 4zm16.03 0c0 2.2-1.8 4-4 4s-4-1.8-4-4 1.8-4 4-4 4 1.8 4 4zm16.03 0c0 2.2-1.78 4-4 4-2.2 0-4-1.8-4-4s1.8-4 4-4c2.22 0 4 1.8 4 4zm16.05 0c0 2.2-1.8 4-4 4s-4-1.8-4-4 1.8-4 4-4 4 1.8 4 4zm16.03 0c0 2.2-1.8 4-4 4s-4-1.8-4-4 1.8-4 4-4 4 1.8 4 4zm16.04 0c0 2.2-1.8 4-4 4s-4-1.8-4-4 1.8-4 4-4 4 1.8 4 4zm16.03 0c0 2.2-1.8 4-4 4s-4-1.8-4-4 1.8-4 4-4 4 1.8 4 4zm16.04 0c0 2.2-1.8 4-4 4-2.22 0-4-1.8-4-4s1.78-4 4-4c2.2 0 4 1.8 4 4zm16.02 0c0 2.2-1.8 4-4 4s-4-1.8-4-4 1.8-4 4-4 4 1.8 4 4zm16.04 0c0 2.2-1.8 4-4 4s-4-1.8-4-4 1.8-4 4-4 4 1.8 4 4zm16.03 0c0 2.2-1.8 4-4 4-2.22 0-4-1.8-4-4s1.78-4 4-4c2.2 0 4 1.8 4 4zm16.02 0c0 2.2-1.8 4-4 4s-4-1.8-4-4 1.8-4 4-4 4 1.8 4 4zm16.04 0c0 2.2-1.8 4-4 4s-4-1.8-4-4 1.8-4 4-4 4 1.8 4 4zm16.03 0c0 2.2-1.8 4-4 4-2.22 0-4-1.8-4-4s1.78-4 4-4c2.2 0 4 1.8 4 4zm16.03 0c0 2.2-1.8 4-4 4s-4-1.8-4-4 1.8-4 4-4 4 1.8 4 4zm16.03 0c0 2.2-1.8 4-4 4s-4-1.8-4-4 1.8-4 4-4 4 1.8 4 4zm16.04 0c0 2.2-1.8 4-4 4s-4-1.8-4-4 1.8-4 4-4 4 1.8 4 4zm16.03 0c0 2.2-1.8 4-4 4s-4-1.8-4-4 1.8-4 4-4 4 1.8 4 4zm16.04 0c0 2.2-1.8 4-4 4s-4-1.8-4-4 1.8-4 4-4 4 1.8 4 4zm16.03 0c0 2.2-1.8 4-4 4s-4-1.8-4-4 1.8-4 4-4 4 1.8 4 4zm16.04 0c0 2.2-1.8 4-4 4s-4-1.8-4-4 1.8-4 4-4 4 1.8 4 4zm16.03 0c0 2.2-1.8 4-4 4s-4-1.8-4-4 1.8-4 4-4 4 1.8 4 4zm16.03 0c0 2.2-1.8 4-4 4s-4-1.8-4-4 1.8-4 4-4 4 1.8 4 4zm16.04 0c0 2.2-1.8 4-4 4s-4-1.8-4-4 1.8-4 4-4 4 1.8 4 4zm16.03 0c0 2.2-1.8 4-4 4s-4-1.8-4-4 1.8-4 4-4 4 1.8 4 4zm16.04 0c0 2.2-1.78 4-4 4-2.2 0-4-1.8-4-4s1.8-4 4-4c2.22 0 4 1.8 4 4zm16.04 0c0 2.2-1.8 4-4 4s-4-1.8-4-4 1.8-4 4-4 4 1.8 4 4zm16.04 0c0 2.2-1.8 4-4 4s-4-1.8-4-4 1.8-4 4-4 4 1.8 4 4zm16.03 0c0 2.2-1.78 4-4 4-2.2 0-4-1.8-4-4s1.8-4 4-4c2.22 0 4 1.8 4 4zm16.05 0c0 2.2-1.8 4-4 4s-4-1.8-4-4 1.8-4 4-4 4 1.8 4 4zm16.03 0c0 2.2-1.8 4-4 4s-4-1.8-4-4 1.8-4 4-4 4 1.8 4 4zm16.04 0c0 2.2-1.8 4-4 4s-4-1.8-4-4 1.8-4 4-4 4 1.8 4 4zm16.03 0c0 2.2-1.8 4-4 4s-4-1.8-4-4 1.8-4 4-4 4 1.8 4 4zm16.03 0c0 2.2-1.8 4-4 4s-4-1.8-4-4 1.8-4 4-4 4 1.8 4 4zm16.04 0c0 2.2-1.8 4-4 4s-4-1.8-4-4 1.8-4 4-4 4 1.8 4 4zm16.03 0c0 2.2-1.8 4-4 4s-4-1.8-4-4 1.8-4 4-4 4 1.8 4 4zm16.04 0c0 2.2-1.8 4-4 4-2.22 0-4-1.8-4-4s1.78-4 4-4c2.2 0 4 1.8 4 4zm16.02 0c0 2.2-1.8 4-4 4s-4-1.8-4-4 1.8-4 4-4 4 1.8 4 4zm16.04 0c0 2.2-1.8 4-4 4s-4-1.8-4-4 1.8-4 4-4 4 1.8 4 4zm16.03 0c0 2.2-1.8 4-4 4-2.22 0-4-1.8-4-4s1.78-4 4-4c2.2 0 4 1.8 4 4zm16.03 0c0 2.2-1.8 4-4 4s-4-1.8-4-4 1.8-4 4-4 4 1.8 4 4zm16.03 0c0 2.2-1.8 4-4 4s-4-1.8-4-4 1.8-4 4-4 4 1.8 4 4zm16.03 0c0 2.2-1.8 4-4 4s-4-1.8-4-4 1.8-4 4-4 4 1.8 4 4zm16.03 0c0 2.2-1.8 4-4 4s-4-1.8-4-4 1.8-4 4-4 4 1.8 4 4zm16.03 0c0 2.2-1.8 4-4 4s-4-1.8-4-4 1.8-4 4-4 4 1.8 4 4zm16.04 0c0 2.2-1.8 4-4 4s-4-1.8-4-4 1.8-4 4-4 4 1.8 4 4zm16.03 0c0 2.2-1.8 4-4 4s-4-1.8-4-4 1.8-4 4-4 4 1.8 4 4zm16.04 0c0 2.2-1.8 4-4 4s-4-1.8-4-4 1.8-4 4-4 4 1.8 4 4zm16.03 0c0 2.2-1.8 4-4 4s-4-1.8-4-4 1.8-4 4-4 4 1.8 4 4zm16.04 0c0 2.2-1.8 4-4 4s-4-1.8-4-4 1.8-4 4-4 4 1.8 4 4zm16.03 0c0 2.2-1.8 4-4 4s-4-1.8-4-4 1.8-4 4-4 4 1.8 4 4zm16.04 0c0 2.2-1.8 4-4 4s-4-1.8-4-4 1.8-4 4-4 4 1.8 4 4zm16.04 0c0 2.2-1.8 4-4 4s-4-1.8-4-4 1.8-4 4-4 4 1.8 4 4zm16.03 0c0 2.2-1.8 4-4 4s-4-1.8-4-4 1.8-4 4-4 4 1.8 4 4zm16.04 0c0 2.2-1.78 4-4 4-2.2 0-4-1.8-4-4s1.8-4 4-4c2.22 0 4 1.8 4 4zm16.04 0c0 2.2-1.8 4-4 4s-4-1.8-4-4 1.8-4 4-4 4 1.8 4 4zm16.04 0c0 2.2-1.8 4-4 4s-4-1.8-4-4 1.8-4 4-4 4 1.8 4 4zm16.03 0c0 2.2-1.78 4-4 4-2.2 0-4-1.8-4-4s1.8-4 4-4c2.22 0 4 1.8 4 4zm16.05 0c0 2.2-1.8 4-4 4s-4-1.8-4-4 1.8-4 4-4 4 1.8 4 4zm16.03 0c0 2.2-1.8 4-4 4s-4-1.8-4-4 1.8-4 4-4 4 1.8 4 4zm16.04 0c0 2.2-1.8 4-4 4s-4-1.8-4-4 1.8-4 4-4 4 1.8 4 4zm16.03 0c0 2.2-1.8 4-4 4s-4-1.8-4-4 1.8-4 4-4 4 1.8 4 4zm16.04 0c0 2.2-1.8 4-4 4-2.22 0-4-1.8-4-4s1.78-4 4-4c2.2 0 4 1.8 4 4zm16.02 0c0 2.2-1.8 4-4 4s-4-1.8-4-4 1.8-4 4-4 4 1.8 4 4zm16.03 0c0 2.2-1.8 4-4 4s-4-1.8-4-4 1.8-4 4-4 4 1.8 4 4zm16.04 0c0 2.2-1.8 4-4 4-2.22 0-4-1.8-4-4s1.78-4 4-4c2.2 0 4 1.8 4 4zm16.02 0c0 2.2-1.8 4-4 4s-4-1.8-4-4 1.8-4 4-4 4 1.8 4 4zm16.04 0c0 2.2-1.8 4-4 4s-4-1.8-4-4 1.8-4 4-4 4 1.8 4 4zm16.03 0c0 2.2-1.8 4-4 4-2.22 0-4-1.8-4-4s1.78-4 4-4c2.2 0 4 1.8 4 4zm16.03 0c0 2.2-1.8 4-4 4s-4-1.8-4-4 1.8-4 4-4 4 1.8 4 4zm16.03 0c0 2.2-1.8 4-4 4s-4-1.8-4-4 1.8-4 4-4 4 1.8 4 4zm16.04 0c0 2.2-1.8 4-4 4s-4-1.8-4-4 1.8-4 4-4 4 1.8 4 4zm16.03 0c0 2.2-1.8 4-4 4s-4-1.8-4-4 1.8-4 4-4 4 1.8 4 4zm16.03 0c0 2.2-1.8 4-4 4s-4-1.8-4-4 1.8-4 4-4 4 1.8 4 4zm16.04 0c0 2.2-1.8 4-4 4s-4-1.8-4-4 1.8-4 4-4 4 1.8 4 4zm16.03 0c0 2.2-1.8 4-4 4s-4-1.8-4-4 1.8-4 4-4 4 1.8 4 4zm16.04 0c0 2.2-1.8 4-4 4s-4-1.8-4-4 1.8-4 4-4 4 1.8 4 4zm16.03 0c0 2.2-1.8 4-4 4s-4-1.8-4-4 1.8-4 4-4 4 1.8 4 4zm16.04 0c0 2.2-1.8 4-4 4s-4-1.8-4-4 1.8-4 4-4 4 1.8 4 4zm16.03 0c0 2.2-1.8 4-4 4s-4-1.8-4-4 1.8-4 4-4 4 1.8 4 4zm16.04 0c0 2.2-1.78 4-4 4-2.2 0-4-1.8-4-4s1.8-4 4-4c2.22 0 4 1.8 4 4zm16.04 0c0 2.2-1.8 4-4 4s-4-1.8-4-4 1.8-4 4-4 4 1.8 4 4zm16.04 0c0 2.2-1.8 4-4 4s-4-1.8-4-4 1.8-4 4-4 4 1.8 4 4zm16.03 0c0 2.2-1.78 4-4 4-2.2 0-4-1.8-4-4s1.8-4 4-4c2.22 0 4 1.8 4 4zm16.04 0c0 2.2-1.8 4-4 4s-4-1.8-4-4 1.8-4 4-4 4 1.8 4 4zm16.04 0c0 2.2-1.8 4-4 4s-4-1.8-4-4 1.8-4 4-4 4 1.8 4 4zm16.03 0c0 2.2-1.78 4-4 4-2.2 0-4-1.8-4-4s1.8-4 4-4c2.22 0 4 1.8 4 4zm16.05 0c0 2.2-1.8 4-4 4s-4-1.8-4-4 1.8-4 4-4 4 1.8 4 4zm16.03 0c0 2.2-1.8 4-4 4s-4-1.8-4-4 1.8-4 4-4 4 1.8 4 4zm16.04 0c0 2.2-1.8 4-4 4s-4-1.8-4-4 1.8-4 4-4 4 1.8 4 4zm16.03 0c0 2.2-1.8 4-4 4s-4-1.8-4-4 1.8-4 4-4 4 1.8 4 4zm16.04 0c0 2.2-1.8 4-4 4-2.22 0-4-1.8-4-4s1.78-4 4-4c2.2 0 4 1.8 4 4zm16.02 0c0 2.2-1.8 4-4 4s-4-1.8-4-4 1.8-4 4-4 4 1.8 4 4zm16.04 0c0 2.2-1.8 4-4 4s-4-1.8-4-4 1.8-4 4-4 4 1.8 4 4zm16.03 0c0 2.2-1.8 4-4 4-2.22 0-4-1.8-4-4s1.78-4 4-4c2.2 0 4 1.8 4 4zm16.02 0c0 2.2-1.8 4-4 4s-4-1.8-4-4 1.8-4 4-4 4 1.8 4 4zm16.04 0c0 2.2-1.8 4-4 4s-4-1.8-4-4 1.8-4 4-4 4 1.8 4 4zm16.03 0c0 2.2-1.8 4-4 4-2.22 0-4-1.8-4-4s1.78-4 4-4c2.2 0 4 1.8 4 4zm16.03 0c0 2.2-1.8 4-4 4s-4-1.8-4-4 1.8-4 4-4 4 1.8 4 4zm16.03 0c0 2.2-1.8 4-4 4s-4-1.8-4-4 1.8-4 4-4 4 1.8 4 4zm16.04 0c0 2.2-1.8 4-4 4s-4-1.8-4-4 1.8-4 4-4 4 1.8 4 4zm16.03 0c0 2.2-1.8 4-4 4s-4-1.8-4-4 1.8-4 4-4 4 1.8 4 4zm16.04 0c0 2.2-1.8 4-4 4s-4-1.8-4-4 1.8-4 4-4 4 1.8 4 4zm16.03 0c0 2.2-1.8 4-4 4s-4-1.8-4-4 1.8-4 4-4 4 1.8 4 4zm16.03 0c0 2.2-1.8 4-4 4s-4-1.8-4-4 1.8-4 4-4 4 1.8 4 4zm16.04 0c0 2.2-1.8 4-4 4s-4-1.8-4-4 1.8-4 4-4 4 1.8 4 4zm16.03 0c0 2.2-1.8 4-4 4s-4-1.8-4-4 1.8-4 4-4 4 1.8 4 4zm16.04 0c0 2.2-1.8 4-4 4s-4-1.8-4-4 1.8-4 4-4 4 1.8 4 4zm16.03 0c0 2.2-1.8 4-4 4s-4-1.8-4-4 1.8-4 4-4 4 1.8 4 4zm16.04 0c0 2.2-1.78 4-4 4-2.2 0-4-1.8-4-4s1.8-4 4-4c2.22 0 4 1.8 4 4zm16.04 0c0 2.2-1.8 4-4 4s-4-1.8-4-4 1.8-4 4-4 4 1.8 4 4zm16.04 0c0 2.2-1.8 4-4 4s-4-1.8-4-4 1.8-4 4-4 4 1.8 4 4zm16.03 0c0 2.2-1.78 4-4 4-2.2 0-4-1.8-4-4s1.8-4 4-4c2.22 0 4 1.8 4 4zm16.05 0c0 2.2-1.8 4-4 4s-4-1.8-4-4 1.8-4 4-4 4 1.8 4 4zm16.03 0c0 2.2-1.8 4-4 4s-4-1.8-4-4 1.8-4 4-4 4 1.8 4 4zm16.03 0c0 2.2-1.78 4-4 4-2.2 0-4-1.8-4-4s1.8-4 4-4c2.22 0 4 1.8 4 4zm16.05 0c0 2.2-1.8 4-4 4s-4-1.8-4-4 1.8-4 4-4 4 1.8 4 4zm16.03 0c0 2.2-1.8 4-4 4s-4-1.8-4-4 1.8-4 4-4 4 1.8 4 4zm16.04 0c0 2.2-1.8 4-4 4s-4-1.8-4-4 1.8-4 4-4 4 1.8 4 4zm16.03 0c0 2.2-1.8 4-4 4s-4-1.8-4-4 1.8-4 4-4 4 1.8 4 4zm16.04 0c0 2.2-1.8 4-4 4-2.22 0-4-1.8-4-4s1.78-4 4-4c2.2 0 4 1.8 4 4zm16.02 0c0 2.2-1.8 4-4 4s-4-1.8-4-4 1.8-4 4-4 4 1.8 4 4zm16.04 0c0 2.2-1.8 4-4 4s-4-1.8-4-4 1.8-4 4-4 4 1.8 4 4zm16.03 0c0 2.2-1.8 4-4 4-2.22 0-4-1.8-4-4s1.78-4 4-4c2.2 0 4 1.8 4 4zm16.03 0c0 2.2-1.8 4-4 4s-4-1.8-4-4 1.8-4 4-4 4 1.8 4 4zm16.03 0c0 2.2-1.8 4-4 4s-4-1.8-4-4 1.8-4 4-4 4 1.8 4 4zm16.03 0c0 2.2-1.8 4-4 4s-4-1.8-4-4 1.8-4 4-4 4 1.8 4 4zm16.03 0c0 2.2-1.8 4-4 4s-4-1.8-4-4 1.8-4 4-4 4 1.8 4 4zm16.03 0c0 2.2-1.8 4-4 4s-4-1.8-4-4 1.8-4 4-4 4 1.8 4 4zm16.04 0c0 2.2-1.8 4-4 4s-4-1.8-4-4 1.8-4 4-4 4 1.8 4 4zm16.03 0c0 2.2-1.8 4-4 4s-4-1.8-4-4 1.8-4 4-4 4 1.8 4 4zm16.04 0c0 2.2-1.8 4-4 4s-4-1.8-4-4 1.8-4 4-4 4 1.8 4 4zm16.03 0c0 2.2-1.8 4-4 4s-4-1.8-4-4 1.8-4 4-4 4 1.8 4 4zm16.04 0c0 2.2-1.8 4-4 4s-4-1.8-4-4 1.8-4 4-4 4 1.8 4 4zm16.03 0c0 2.2-1.8 4-4 4s-4-1.8-4-4 1.8-4 4-4 4 1.8 4 4zm16.03 0c0 2.2-1.8 4-4 4s-4-1.8-4-4 1.8-4 4-4 4 1.8 4 4zm16.04 0c0 2.2-1.8 4-4 4s-4-1.8-4-4 1.8-4 4-4 4 1.8 4 4zm16.03 0c0 2.2-1.8 4-4 4s-4-1.8-4-4 1.8-4 4-4 4 1.8 4 4zm16.04 0c0 2.2-1.78 4-4 4-2.2 0-4-1.8-4-4s1.8-4 4-4c2.22 0 4 1.8 4 4zm16.04 0c0 2.2-1.8 4-4 4s-4-1.8-4-4 1.8-4 4-4 4 1.8 4 4zm16.04 0c0 2.2-1.8 4-4 4s-4-1.8-4-4 1.8-4 4-4 4 1.8 4 4z" fill="#a3d977"/><path d="M344.1 220H340M2749.07 220h4.1" stroke="#a3d977" stroke-width="8" fill="none"/><path d="M302.44 705.6c-2.34-2.33-2.34-6.13 0-8.47l13.35-13.35c2.08-2.1 3.77-1.4 3.77 1.56 0 2.95 2.4 5.34 5.34 5.34h188.4c2.94 0 5.33-2.4 5.33-5.34 0-2.95 1.7-3.65 3.78-1.56l13.36 13.35c2.34 2.34 2.34 6.14 0 8.48l-13.35 13.36c-2.08 2.1-3.77 1.4-3.77-1.56 0-2.95-2.4-5.35-5.34-5.35H324.9c-2.94 0-5.33 2.4-5.33 5.35 0 2.95-1.7 3.65-3.78 1.56zM1104.24 802.6c-2.34-2.33-2.34-6.13 0-8.47l13.35-13.35c2.08-2.1 3.77-1.4 3.77 1.56 0 2.95 2.4 5.34 5.34 5.34h188.4c2.94 0 5.33-2.4 5.33-5.34 0-2.95 1.7-3.65 3.78-1.56l13.36 13.35c2.34 2.34 2.34 6.14 0 8.48l-13.35 13.36c-2.08 2.1-3.77 1.4-3.77-1.56 0-2.95-2.4-5.35-5.34-5.35h-188.4c-2.94 0-5.33 2.4-5.33 5.35 0 2.95-1.7 3.65-3.78 1.56zM2064.24 689.94c-2.34-2.34-2.34-6.14 0-8.48l13.35-13.35c2.08-2.08 3.77-1.38 3.77 1.57s2.4 5.35 5.34 5.35h188.4c2.94 0 5.33-2.4 5.33-5.35 0-2.95 1.7-3.65 3.78-1.56l13.36 13.36c2.34 2.34 2.34 6.14 0 8.48l-13.35 13.35c-2.08 2.08-3.77 1.38-3.77-1.57s-2.4-5.34-5.34-5.34h-188.4c-2.94 0-5.33 2.38-5.33 5.33s-1.7 3.65-3.78 1.56z" stroke="#000" stroke-opacity="0" stroke-width="3" fill="#a3d977"/><defs><path fill="#333" d="M67-125c0 53 21 87 73 88 37 1 54-22 65-47l45 17C233-25 199 4 140 4 58 4 20-42 15-125 8-235 124-281 211-232c18 10 29 29 36 50l-46 12c-8-25-30-41-62-41-52 0-71 34-72 86" id="e"/><path fill="#333" d="M133-34C117-15 103 5 69 4 32 3 11-16 11-54c-1-60 55-63 116-61 1-26-3-47-28-47-18 1-26 9-28 27l-52-2c7-38 36-58 82-57s74 22 75 68l1 82c-1 14 12 18 25 15v27c-30 8-71 5-69-32zm-48 3c29 0 43-24 42-57-32 0-66-3-65 30 0 17 8 27 23 27" id="f"/><path fill="#333" d="M137-138c1-29-70-34-71-4 15 46 118 7 119 86 1 83-164 76-172 9l43-7c4 19 20 25 44 25 33 8 57-30 24-41C81-84 22-81 20-136c-2-80 154-74 161-7" id="g"/><path fill="#333" d="M185-48c-13 30-37 53-82 52C43 2 14-33 14-96s30-98 90-98c62 0 83 45 84 108H66c0 31 8 55 39 56 18 0 30-7 34-22zm-45-69c5-46-57-63-70-21-2 6-4 13-4 21h74" id="h"/><g id="a"><use transform="matrix(0.1234567901234567,0,0,0.1234567901234567,0,0)" xlink:href="#e"/><use transform="matrix(0.1234567901234567,0,0,0.1234567901234567,31.975308641975285,0)" xlink:href="#f"/><use transform="matrix(0.1234567901234567,0,0,0.1234567901234567,56.66666666666663,0)" xlink:href="#g"/><use transform="matrix(0.1234567901234567,0,0,0.1234567901234567,81.35802469135797,0)" xlink:href="#h"/></g><path fill="#333" d="M23 0v-37h61v-169l-59 37v-38l62-41h46v211h57V0H23" id="i"/><use transform="matrix(0.1234567901234567,0,0,0.1234567901234567,0,0)" xlink:href="#i" id="b"/><path fill="#333" d="M182-182c0 78-84 86-111 141h115V0H12c-6-101 99-100 120-180 1-22-12-31-33-32-23 0-32 14-35 34l-49-3c5-45 32-70 84-70 51 0 83 22 83 69" id="j"/><use transform="matrix(0.1234567901234567,0,0,0.1234567901234567,0,0)" xlink:href="#j" id="c"/><path fill="#333" d="M128-127c34 4 56 21 59 58 7 91-148 94-172 28-4-9-6-17-7-26l51-5c1 24 16 35 40 36 23 0 39-12 38-36-1-31-31-36-65-34v-40c32 2 59-3 59-33 0-20-13-33-34-33s-33 13-35 32l-50-3c6-44 37-68 86-68 50 0 83 20 83 66 0 35-22 52-53 58" id="k"/><use transform="matrix(0.1234567901234567,0,0,0.1234567901234567,0,0)" xlink:href="#k" id="d"/></defs></g></svg>