<svg xmlns="http://www.w3.org/2000/svg" xmlns:lucid="lucid" width="577.04" height="308.7"><g lucid:page-tab-id="0_0"><path d="M-215.78-145.92h1870.4v1323.2h-1870.4z" fill="#fff"/><path d="M172.07 74.08h140v80h-140z" fill="none"/><path d="M172.07 122.08h14c0-15.05 6.27-24 14-24s14 8.95 14 20c0-11.05 6.27-20 14-20s14 8.95 14 20c0-11.05 6.27-20 14-20s14 8.95 14 20c0-11.05 6.27-20 14-20s14 8.95 14 20c0 1.4-.08 2.6-.28 3.97l14.27.03" stroke="#000" stroke-width="2" fill="none"/><path d="M20 168.5h72.54V235H20z" fill="#fff" fill-opacity="0"/><path d="M52.5 189.4l-1.85 7h-.7c.03-.57.08-1.06.08-1.55-.14-3.27-2.57-3.85-4.83-3.85h-7.1l-2.64 10.98H39c2.66 0 4.6-.57 5.58-4.2h.7l-2.56 10.7h-.75c.04-.56.26-1.9.26-2.64 0-2.1-1.8-2.26-3.2-2.26h-3.97L32.13 215c-.04.18-.08.3-.08.45 0 .7.7 1.2 2.8 1.2h2.95c7 0 9.48-2.1 11.38-7.1h.7l-2.9 8.77h-25.3l.18-.7h.84c3.23 0 4.25-1.24 4.6-2.75l5.32-21.6c.18-.8.22-1.3.22-1.6 0-1.07-.7-1.56-3.32-1.56h-.84l.18-.7H52.5M30.44 180.48h-9.86v-2.07h9.86v2.08"/><path d="M43.22 180.48h-12.8v-2.07h12.8v2.08"/><path d="M53.08 180.48H43.2v-2.07h9.88v2.08M67.86 211.57L65 222.37s-.02.06-.02.34c0 .36.2.55.44.55.3 0 .78-.07 2-1.7l.38.38c-.97 1.47-2.66 3.35-4.17 3.35-1.03 0-1.3-.72-1.3-1.72 0-.4.18-1.07.33-1.57h-.12c-2.26 2.87-4.2 3.28-5.42 3.28-1.97 0-2.8-1.72-2.8-3.72 0-4.14 4.15-10.4 8.66-10.4 1.34 0 2 .75 2.06 1.44h.03l.3-1.03h2.5m-3.3 2.72c0-1.3-.37-2.23-1.56-2.23-2.12 0-4 2.72-5.07 5.35-.56 1.4-.87 2.8-.87 3.88 0 1.66.97 2.07 1.8 2.07 2.17 0 4.37-2.97 5.24-5.95.25-.8.47-2.06.47-3.13M76.56 211.3h1.16c1.98 0 1.82-2.43 3.17-4.43.96-1.47 2.3-2.82 4.68-2.82 1.57 0 2.48.75 2.48 1.85 0 .88-.66 1.25-1.3 1.25-.87 0-1.08-.34-1.08-.78s.28-.9.28-1.16c0-.15-.1-.24-.47-.24-1.58 0-2.8 1.7-3.46 4.13l-.6 2.2h2.5l-.36 1.18H81.2l-2.48 9.58c-.2.84-.46 2.03-.93 3.2-1.05 2.6-2.74 5.56-5.5 5.56-1.5 0-2.25-.75-2.25-1.7 0-.74.44-1.52 1.35-1.52.84 0 1.16.56 1.16 1.03 0 .6-.5.63-.5 1 0 .2.18.28.47.28 2.03 0 2.97-4.93 3.44-6.72l2.72-10.7h-2.42"/><path d="M497.87 173.57h59.17v60.97h-59.17z" fill-opacity="0"/><path d="M531.53 194.48l-.18.7c-2.88.2-4.7 1.9-5.85 3.42l-19.53 25.5h-1.06v-25.28c0-2.57-1.67-3.63-4.37-3.63l.17-.72h13.02l-.17.7h-.85c-2.87 0-3.1 1.65-3.1 3.1v17.33l.18.05 12.4-16.2c.84-1.07 1.68-2.36 1.68-3.3 0-.65-.62-.96-2.3-.96h-.88l.17-.72h10.68M513.05 185.56h-9.87v-2.07h9.87v2.06"/><path d="M526.97 185.56h-13.95v-2.07h13.95v2.06M536.84 185.56h-9.86v-2.07h9.86v2.06M551.63 216.67l-2.85 10.8s-.03.06-.03.35c0 .34.2.53.44.53.3 0 .77-.07 2-1.7l.37.38c-.98 1.47-2.67 3.35-4.17 3.35-1.03 0-1.3-.72-1.3-1.72 0-.4.17-1.06.33-1.56h-.12c-2.25 2.88-4.2 3.28-5.4 3.28-1.98 0-2.8-1.72-2.8-3.72 0-4.14 4.13-10.4 8.64-10.4 1.35 0 2 .75 2.07 1.44h.04l.28-1.03h2.5m-3.28 2.72c0-1.3-.38-2.23-1.57-2.23-2.12 0-4 2.72-5.07 5.35-.56 1.4-.87 2.8-.87 3.9 0 1.65.97 2.05 1.8 2.05 2.17 0 4.36-2.97 5.24-5.95.25-.8.47-2.06.47-3.13"/><path d="M206.5 138.4h71.15v47.17H206.5z" fill="#fff" fill-opacity="0"/><path d="M223.65 146.6c0 1.15-.98 2.03-2.13 2.03-1.28 0-2.13-.88-2.13-2.03 0-1.1.84-2.22 2.12-2.22 1.15 0 2.13 1.1 2.13 2.22m-.93 5.53l-4.8 18.82c-.96 3.9-3.44 9-8.22 9-2.35 0-3.24-1.47-3.24-2.7 0-.98.53-2.3 2.08-2.3.85 0 1.55.65 1.55 1.67 0 .67-.7.8-.7 1.5 0 .2.2.45.43.45 2.04 0 3.5-3.36 4.56-7.62l4.06-16.07c0-.53-.44-.98-1.4-.98-.37 0-.9.1-1.2.23l-.14-.76M260.27 142.74l-.18.7h-.18c-3.06 0-4.34 1.43-5.98 3.3l-8.28 9.42 4.25 11.78c.54 1.5 1.3 3 3.5 3h.63l-.18.72H241.4l.18-.7h.5c1.67 0 2.96-.18 2.96-1.82 0-.36-.05-.7-.18-1.15l-3.06-8.6-8 8.9c-.4.44-.54.84-.54 1.24 0 .84.8 1.4 2.48 1.4h.97l-.17.72H225.5l.18-.7c2.4-.32 4.56-1.64 6.2-3.42l9.2-10.18-3.75-10.23c-.5-1.37-1.24-3.68-4.52-3.68h-.4l.2-.7h12.52l-.17.7h-.84c-1.32 0-2.3.18-2.3 1.55 0 .36.1.76.27 1.24l2.66 7.93 7.26-8.15c.4-.5.65-1.02.65-1.5-.04-.7-.57-1.07-2-1.07h-.4l.2-.7h9.82M271.58 164.52l-.75 4.58h-.47c0-2-1.12-3.76-2.88-3.76-.78 0-1.6.53-1.6 1.8 0 1.74 4.2 4.62 4.2 7.6 0 1.93-1.5 3.9-4.23 3.9-1.06 0-3.06-.62-3.44-.62-.27 0-.55.12-.93.66h-.53l.78-4.9h.5c0 1.98 1.3 4.08 3.26 4.08 1.85 0 2.28-1.56 2.28-2.78 0-2.57-4.07-4.14-4.07-7.2 0-2.48 1.84-3.36 3.56-3.36 1.35 0 1.98.63 2.88.63.35 0 .7-.3.94-.63h.5"/><path d="M164.74 197.88c0 16.2-13.14 29.33-29.34 29.33s-29.33-13.12-29.33-29.32c0-16.2 13.13-29.34 29.33-29.34 16.2 0 29.34 13.14 29.34 29.34zM135.4 183.2h-3.66m3.66 0h3.67m-3.67 0v-3.66m0 3.67v3.68m0 25.66h3.67m-3.67 0h-3.66m3.66-44v-7.33m0 66v7.34" stroke="#000" stroke-width="2" fill="#fff"/><path d="M135.4 160.2V122.1h35.67" stroke="#000" stroke-width="2" fill="none"/><path d="M134.4 161.2v-1.02h2v1.03zM172.07 123.08h-1.03v-2h1.03z"/><path d="M135.4 235.54v48.04h337.82" stroke="#000" stroke-width="2" fill="none"/><path d="M136.4 235.57h-2v-1.03h2z"/><path d="M473.2 283.58h1.02M313.07 122l10.9-.72" stroke="#000" stroke-width="2" fill="none"/><path d="M313.16 123l-4.02.28v-.2h2.93v-2h-.03l1-.07zM327.9 120.2h-2.93v2h.03l-1 .08-.12-2 4-.27z"/><path d="M331.03 20h45.1v60.97h-45.1z" fill-opacity="0"/><path d="M354.5 40.9l-.18.72h-.84c-3.37 0-4.3 1.15-4.7 2.75l-5.44 22c-.1.36-.14.85-.14 1.3 0 .92.85 1.45 3.46 1.45h.75l-.17.7H332.7l.2-.7h.83c3.36 0 4.3-1.24 4.65-2.74l5.44-22c.1-.37.18-.77.18-1.08 0-.97-.75-1.68-3.4-1.68h-.8l.17-.7h14.53M342.3 32h-9.86V29.9h9.87V32"/><path d="M346.07 32h-3.77V29.9h3.77V32"/><path d="M355.9 32h-9.87V29.9h9.86V32M370.73 63.1l-2.85 10.8s-.03.06-.03.35c0 .34.18.53.43.53.32 0 .8-.06 2-1.7l.38.38c-.97 1.47-2.66 3.35-4.16 3.35-1.03 0-1.32-.7-1.32-1.7 0-.42.2-1.07.35-1.57h-.13c-2.25 2.88-4.2 3.28-5.4 3.28-2 0-2.8-1.7-2.8-3.7 0-4.15 4.13-10.4 8.64-10.4 1.35 0 2 .74 2.07 1.43h.04l.28-1.03h2.5m-3.28 2.72c0-1.28-.38-2.22-1.57-2.22-2.13 0-4 2.72-5.07 5.35-.56 1.4-.88 2.8-.88 3.9 0 1.65.98 2.05 1.82 2.05 2.16 0 4.35-2.97 5.23-5.95.25-.8.47-2.06.47-3.13"/><path d="M315.22 81.27h71.82M315.24 81.27h-1.02" stroke="#000" stroke-width="2" fill="none"/><path d="M402.3 81.27l-14.26 4.63v-9.27z" stroke="#000" stroke-width="2"/><path d="M324.97 81.2h160v80h-160z" fill="none"/><path d="M324.97 121.2h36l8-12 12 24 12-24 12 24 12-24 12 24 12-24 12 24 8-12h24" stroke="#000" stroke-width="2" fill="none"/><path d="M379.46 138.4h51.02v44.4h-51.02z" fill="#fff" fill-opacity="0"/><path d="M411.57 170.95l-.1.7H404l-6.65-13.94c-.44.06-.93.1-1.28.1-.62 0-1.07-.1-1.7-.18l-2.73 10.6c-.1.34-.13.65-.13 1 0 1.07.8 1.73 3.37 1.73h.84l-.16.7h-14.4l.18-.7h.7c3.37 0 4.26-1.24 4.66-2.74l5.5-22c.08-.36.2-.75.2-1.1 0-.94-.74-1.65-3.4-1.65h-.88l.17-.7h12c7.1 0 9.57 2.92 9.57 6.68 0 3.68-3.14 6.64-7.88 7.57l5.1 10.15c.83 1.72 1.98 3.58 4.5 3.8m-13.94-26.43l-2.84 11.5c.58.14 1.02.2 1.42.2 5.9 0 8.46-2.58 8.46-6.3 0-4.78-2.75-5.54-5.54-5.54-.62 0-1.02.05-1.5.14M424.45 164.52l-.75 4.58h-.47c0-2-1.13-3.76-2.88-3.76-.78 0-1.6.53-1.6 1.8 0 1.74 4.2 4.62 4.2 7.6 0 1.93-1.5 3.9-4.23 3.9-1.06 0-3.07-.62-3.44-.62-.28 0-.56.12-.94.66h-.53l.8-4.9h.5c0 1.98 1.27 4.08 3.25 4.08 1.84 0 2.28-1.56 2.28-2.78 0-2.57-4.07-4.14-4.07-7.2 0-2.48 1.85-3.36 3.57-3.36 1.35 0 1.97.63 2.88.63.36 0 .7-.3.95-.63h.5"/><path d="M483.08 124.08h30v30h-30z" fill="none"/><path d="M498.08 124.08v30m-15-15h30" stroke="#000" stroke-width="2"/><path d="M483.08 124.08h30v30h-30zM483.08 258.7h30v30h-30z" fill="none"/><path d="M483.08 273.7h30" stroke="#000" stroke-width="2"/></g></svg>