<svg xmlns="http://www.w3.org/2000/svg" xmlns:lucid="lucid" width="1021.39" height="482"><g lucid:page-tab-id="0_0"><path d="M-289-249h1870.4v1323.2H-289z" fill="#fff"/><path d="M12 291h580.5M12.03 291H11" stroke="#5e5e5e" stroke-width="2" fill="none"/><path d="M607.76 291l-14.26 4.64v-9.28z" stroke="#5e5e5e" stroke-width="2" fill="#5e5e5e"/><path d="M271 311h79.9v74.08H271z" fill="#fff" fill-opacity="0"/><path d="M320.95 325.63l-.27 1.05c-4.27.26-6.96 2.83-8.67 5.06l-28.97 37.85h-1.58v-37.53c0-3.8-2.5-5.4-6.5-5.4l.26-1.04h19.33l-.27 1.05h-1.24c-4.28 0-4.6 2.43-4.6 4.6v25.7l.26.06 18.4-24.05c1.25-1.6 2.5-3.5 2.5-4.87 0-1-.92-1.45-3.42-1.45h-1.32l.27-1.05h15.85M314.04 319.4H293.6v-3.56h20.44v3.55M342.88 358.55l-4.23 16.03s-.05.1-.05.5c0 .52.28.8.65.8.47 0 1.16-.1 2.98-2.5l.55.55c-1.44 2.2-3.95 4.97-6.18 4.97-1.53 0-1.95-1.07-1.95-2.55 0-.6.28-1.58.5-2.33H335c-3.35 4.28-6.23 4.88-8.04 4.88-2.93 0-4.13-2.55-4.13-5.53 0-6.13 6.14-15.42 12.83-15.42 2 0 2.97 1.1 3.07 2.14h.04l.42-1.55h3.72M338 362.6c0-1.9-.56-3.3-2.32-3.3-3.16 0-5.95 4.04-7.53 7.94-.84 2.1-1.3 4.14-1.3 5.76 0 2.46 1.44 3.07 2.7 3.07 3.2 0 6.45-4.42 7.75-8.83.37-1.2.7-3.07.7-4.65"/><path d="M11.97 290.74l941.17-254.9M12 290.73l-1 .27" stroke="#5e5e5e" stroke-width="2" fill="none"/><path d="M967.88 31.85l-12.56 8.2-2.43-8.95z" stroke="#5e5e5e" stroke-width="2" fill="#5e5e5e"/><path d="M451 51h106.8v82.28H451z" fill="#fff" fill-opacity="0"/><path d="M499.24 65.63L496.48 76h-1.06c.07-.84.14-1.57.14-2.3-.2-4.85-3.82-5.7-7.17-5.7h-10.52l-3.94 16.3h5.25c3.94 0 6.83-.86 8.27-6.25h1.05l-3.8 15.9h-1.12c.06-.85.4-2.82.4-3.94 0-3.08-2.7-3.34-4.74-3.34h-5.92L469 103.6c-.06.28-.12.47-.12.67 0 1.05 1.05 1.77 4.14 1.77h4.4c10.38 0 14.06-3.08 16.9-10.5h1.04l-4.34 13H453.5l.26-1.05H455c4.8 0 6.32-1.85 6.84-4.08l7.9-32.07c.25-1.2.32-1.9.32-2.37 0-1.58-1.05-2.3-4.93-2.3h-1.25l.26-1.05h35.1M486.16 59.4h-20.44v-3.56h20.44v3.55M521.17 98.5l-4.23 16.04s-.05.1-.05.5c0 .53.27.8.64.8.47 0 1.16-.1 2.98-2.5l.55.55c-1.44 2.18-3.95 4.96-6.18 4.96-1.54 0-1.96-1.06-1.96-2.55 0-.6.28-1.57.5-2.3h-.17c-3.35 4.26-6.23 4.86-8.04 4.86-2.93 0-4.14-2.55-4.14-5.52 0-6.14 6.13-15.43 12.82-15.43 2 0 2.97 1.12 3.06 2.15h.05l.42-1.54h3.72m-4.88 4.06c0-1.9-.57-3.3-2.34-3.3-3.15 0-5.94 4.04-7.52 7.94-.84 2.1-1.3 4.14-1.3 5.76 0 2.47 1.44 3.07 2.7 3.07 3.2 0 6.45-4.4 7.75-8.83.36-1.2.7-3.06.7-4.64M534.08 98.1h1.72c2.93 0 2.7-3.58 4.7-6.56 1.43-2.18 3.43-4.18 6.96-4.18 2.33 0 3.67 1.12 3.67 2.74 0 1.3-.97 1.86-1.9 1.86-1.3 0-1.63-.5-1.63-1.16 0-.65.42-1.35.42-1.72 0-.23-.14-.37-.7-.37-2.32 0-4.13 2.52-5.1 6.14l-.9 3.26h3.73l-.56 1.76h-3.54l-3.67 14.22c-.34 1.25-.7 3.02-1.4 4.74-1.54 3.85-4.05 8.27-8.14 8.27-2.23 0-3.34-1.13-3.34-2.52 0-1.12.65-2.28 2-2.28 1.25 0 1.72.84 1.72 1.54 0 .88-.75.92-.75 1.48 0 .28.27.42.7.42 3 0 4.4-7.34 5.1-10l4.04-15.88h-3.58"/><path d="M17.1 291.63l179.6 147.62M17.13 291.65l-.8-.65" stroke="#0c7cba" stroke-width="2" fill="none"/><path d="M208.5 448.95l-13.96-5.48 5.88-7.16z" stroke="#0c7cba" stroke-width="2" fill="#0c7cba"/><path d="M31 379.66h64.78v74.08H31z" fill="#fff" fill-opacity="0"/><path d="M65.83 394.3l-.26 1.04h-1.25c-5 0-6.38 1.7-6.97 4.08l-8.08 32.66c-.13.52-.2 1.25-.2 1.9 0 1.38 1.25 2.17 5.13 2.17h1.12l-.27 1.05H33.5l.26-1.05H35c5 0 6.38-1.84 6.9-4.07l8.1-32.66c.12-.53.26-1.12.26-1.58 0-1.45-1.12-2.5-5.07-2.5H44l.27-1.05h21.56M60.77 388.05H40.33v-3.55h20.44v3.55M87.78 427.22l-4.23 16.02s-.05.1-.05.52c0 .5.28.8.65.8.47 0 1.16-.1 2.98-2.52l.55.55c-1.44 2.18-3.95 4.97-6.18 4.97-1.53 0-1.95-1.07-1.95-2.56 0-.6.28-1.57.5-2.3h-.17c-3.35 4.26-6.23 4.87-8.04 4.87-2.93 0-4.13-2.56-4.13-5.53 0-6.14 6.14-15.43 12.83-15.43 2 0 2.97 1.13 3.07 2.15h.04l.42-1.53h3.72m-4.88 4.04c0-1.9-.56-3.3-2.33-3.3-3.15 0-5.94 4.04-7.52 7.94-.84 2.1-1.3 4.14-1.3 5.76 0 2.47 1.44 3.07 2.7 3.07 3.2 0 6.45-4.4 7.75-8.83.37-1.2.7-3.06.7-4.64"/><path d="M611.78 291.62l84.77 67.82M611.8 291.64l-.8-.64" stroke="#5e5e5e" stroke-width="2" fill="none"/><path d="M708.47 368.98l-14.03-5.3 5.8-7.23z" stroke="#5e5e5e" stroke-width="2" fill="#5e5e5e"/><path d="M707.54 366.95l252.04-321.4M707.56 366.93l-.63.8" stroke="#5e5e5e" stroke-width="2" fill="none"/><path d="M969 33.55l-5.15 14.08-7.3-5.72z" stroke="#5e5e5e" stroke-width="2" fill="#5e5e5e"/><path d="M551 331h140.5v74.08H551z" fill="#fff" fill-opacity="0"/><path d="M598.64 387.5l-.13 1.04h-11.1l-9.85-20.7c-.66.07-1.38.13-1.9.13-.93 0-1.58-.13-2.5-.26l-4.08 15.72c-.13.52-.2.98-.2 1.5 0 1.58 1.2 2.57 5 2.57h1.25l-.26 1.04H553.5l.26-1.05h1.05c5 0 6.32-1.85 6.9-4.08l8.16-32.67c.13-.52.33-1.1.33-1.64 0-1.37-1.13-2.42-5.07-2.42h-1.32l.28-1.05h17.8c10.52 0 14.2 4.34 14.2 9.92 0 5.46-4.66 9.86-11.7 11.24l7.56 15.04c1.25 2.56 2.96 5.32 6.7 5.65m-20.7-39.24l-4.2 17.08c.85.2 1.5.27 2.1.27 8.74 0 12.55-3.8 12.55-9.33 0-7.1-4.08-8.2-8.22-8.2-.92 0-1.5.06-2.24.2M617.77 377.95l-1.12 6.78h-.7c0-2.97-1.67-5.57-4.27-5.57-1.16 0-2.37.8-2.37 2.7 0 2.55 6.24 6.82 6.24 11.24 0 2.88-2.23 5.8-6.28 5.8-1.58 0-4.55-.93-5.1-.93-.43 0-.84.2-1.4.98h-.8l1.17-7.25h.74c0 2.93 1.9 6.04 4.84 6.04 2.75 0 3.4-2.32 3.4-4.13 0-3.8-6.04-6.13-6.04-10.68 0-3.67 2.74-4.97 5.3-4.97 2 0 2.92.93 4.27.93.5 0 1.02-.47 1.4-.93h.74M661.47 345.63l-.26 1.05h-1.24c-5 0-6.38 1.7-6.97 4.07l-8.1 32.67c-.12.52-.2 1.24-.2 1.9 0 1.38 1.26 2.17 5.14 2.17h1.12l-.27 1.04h-21.56l.26-1.05h1.25c5 0 6.37-1.85 6.9-4.08l8.08-32.67c.13-.52.27-1.1.27-1.57 0-1.45-1.12-2.5-5.06-2.5h-1.2l.28-1.05h21.55M656.4 339.4h-20.43v-3.56h20.44v3.55M683.42 378.55l-4.23 16.03s-.06.1-.06.5c0 .52.28.8.65.8.46 0 1.15-.1 2.97-2.5l.55.55c-1.44 2.2-3.95 4.97-6.18 4.97-1.53 0-1.95-1.07-1.95-2.55 0-.6.27-1.58.5-2.33h-.18c-3.35 4.28-6.23 4.88-8.04 4.88-2.93 0-4.13-2.55-4.13-5.53 0-6.13 6.13-15.42 12.82-15.42 2 0 2.97 1.1 3.07 2.14h.04l.42-1.55h3.72m-4.88 4.04c0-1.9-.56-3.3-2.32-3.3-3.16 0-5.95 4.04-7.53 7.94-.85 2.1-1.3 4.14-1.3 5.76 0 2.46 1.43 3.07 2.68 3.07 3.2 0 6.46-4.42 7.76-8.83.37-1.2.7-3.07.7-4.65"/><path d="M831 211h170.4v78.18H831z" fill="#fff" fill-opacity="0"/><path d="M856.47 231.35c0 1.7-1.45 3.02-3.16 3.02-1.9 0-3.14-1.32-3.14-3.02 0-1.65 1.25-3.3 3.15-3.3 1.72 0 3.17 1.65 3.17 3.3m-1.38 8.2L848 267.5c-1.46 5.77-5.14 13.33-12.24 13.33-3.48 0-4.8-2.17-4.8-4 0-1.45.8-3.42 3.1-3.42 1.24 0 2.3 1 2.3 2.5 0 1-1.06 1.2-1.06 2.24 0 .26.33.65.66.65 3.02 0 5.2-5 6.77-11.3l6.05-23.86c0-.8-.66-1.45-2.1-1.45-.53 0-1.32.12-1.78.32l-.2-1.12M910.8 225.63l-.25 1.05h-.26c-4.55 0-6.45 2.1-8.88 4.86l-12.3 14 6.32 17.48c.78 2.24 1.9 4.47 5.2 4.47h.9l-.26 1.04h-18.46l.26-1.05h.72c2.5 0 4.4-.27 4.4-2.7 0-.53-.06-1.06-.26-1.7l-4.53-12.76-11.9 13.2c-.58.66-.77 1.26-.77 1.85 0 1.24 1.18 2.1 3.68 2.1h1.45l-.26 1.04h-16.37l.26-1.05c3.54-.47 6.76-2.44 9.2-5.07l13.66-15.1-5.6-15.2c-.7-2.03-1.83-5.45-6.7-5.45h-.58l.26-1.05h18.6l-.26 1.05h-1.25c-1.97 0-3.42.26-3.42 2.3 0 .53.14 1.12.4 1.84l3.95 11.76 10.77-12.1c.6-.7 1-1.5 1-2.22-.08-1.05-.86-1.58-2.97-1.58h-.6l.27-1.05h14.6M927.6 257.95l-1.1 6.78h-.7c0-2.97-1.68-5.57-4.3-5.57-1.15 0-2.36.8-2.36 2.7 0 2.55 6.23 6.82 6.23 11.24 0 2.88-2.23 5.8-6.27 5.8-1.58 0-4.55-.93-5.1-.93-.43 0-.85.2-1.4.98h-.8l1.17-7.25h.74c0 2.93 1.9 6.04 4.84 6.04 2.74 0 3.4-2.32 3.4-4.13 0-3.8-6.05-6.13-6.05-10.68 0-3.67 2.73-4.97 5.3-4.97 2 0 2.92.93 4.26.93.5 0 1.03-.47 1.4-.93h.74M971.4 225.63l-.26 1.05h-1.25c-5 0-6.38 1.7-6.97 4.07l-8.1 32.67c-.12.52-.18 1.24-.18 1.9 0 1.38 1.25 2.17 5.12 2.17h1.12l-.27 1.04h-21.56l.26-1.05h1.25c5 0 6.38-1.85 6.9-4.08l8.1-32.67c.12-.52.25-1.1.25-1.57 0-1.45-1.12-2.5-5.06-2.5h-1.18l.25-1.05h21.55M966.34 219.4H945.9v-3.56h20.44v3.55M993.35 258.55l-4.23 16.03s-.04.1-.04.5c0 .52.28.8.65.8.46 0 1.16-.1 2.97-2.5l.56.55c-1.44 2.2-3.95 4.97-6.18 4.97-1.53 0-1.95-1.07-1.95-2.55 0-.6.28-1.58.5-2.33h-.18c-3.34 4.28-6.22 4.88-8.04 4.88-2.9 0-4.12-2.55-4.12-5.53 0-6.13 6.13-15.42 12.82-15.42 2 0 2.98 1.1 3.07 2.14h.05l.4-1.55h3.73m-4.88 4.04c0-1.9-.55-3.3-2.32-3.3-3.16 0-5.95 4.04-7.53 7.94-.83 2.1-1.3 4.14-1.3 5.76 0 2.46 1.44 3.07 2.7 3.07 3.2 0 6.45-4.42 7.76-8.83.37-1.2.7-3.07.7-4.65"/><path d="M357.14 290.15l7.74-12.28 3.7-7.93 1.75-5.53.8-4.33.22-3.96-.35-5.1-.3-1.86-.72-2.7-1.52-3.92-2.8-5.4-4.4-6.7-5.96-7.25-7.04-6.9-1.98-1.57M357.16 290.13l-.55.87" stroke="#c92d39" stroke-width="2" fill="none"/><path d="M333.68 206.15l14.4 4.17-5.2 7.68z" stroke="#c92d39" stroke-width="2" fill="#c92d39"/><path d="M391 217c0-3.3 2.7-6 6-6h48c3.3 0 6 2.7 6 6v48c0 3.3-2.7 6-6 6h-48c-3.3 0-6-2.7-6-6z" stroke="#000" stroke-opacity="0" stroke-width="3" fill="#ffbbb1"/><path d="M405.77 211h30.46v57.67h-30.46z" fill="#fff" fill-opacity="0"/><path d="M435.4 220.38c0 1.38-.98 3.03-3 3.03-4.42 0-.87-4.26-6.85-4.26-2.5 0-5.9 1.9-5.9 4.4 0 6.24 14.7 10 14.7 19.25 0 2.16-.32 5.2-1.18 7.35-2.3 5.66-7.62 10.9-15.18 10.9-6.38 0-9.6-4.26-9.6-9.52 0-7.82 6.5-16.5 15.7-17.4-3.02-3.03-6.83-5.07-6.83-8.62 0-6.3 6.64-9.06 10.98-9.06 3.28 0 7.16 1.05 7.16 3.94m-6.56 22.28c0-2.9-1-6.57-3.55-6.57-5.66 0-11.78 10.5-11.78 16.35 0 3.62 1.78 6.7 4.6 6.7 5.92 0 10.72-10.24 10.72-16.5"/></g></svg>