<svg xmlns="http://www.w3.org/2000/svg" xmlns:lucid="lucid" width="649.18" height="261.1"><g lucid:page-tab-id="0_0"><path d="M-245.18-177.65h1870.4v1323.2h-1870.4z" fill="#fff"/><path d="M194.82 42.35h140v80h-140z" fill="none"/><path d="M194.82 90.35h14c0-15.04 6.27-24 14-24s14 8.96 14 20c0-11.04 6.27-20 14-20s14 8.96 14 20c0-11.04 6.27-20 14-20s14 8.96 14 20c0-11.04 6.27-20 14-20s14 8.96 14 20c0 1.4-.1 2.6-.28 3.97l14.28.03" stroke="#000" stroke-width="2" fill="none"/><path d="M20 136.77h49.33v53.76H20z" fill="#fff" fill-opacity="0"/><path d="M50.47 153.82v.7c-1.02.05-1.73.58-2.48 1.78l-16.53 27.23h-.84L27 161.26c-1.02-6.2-1.15-6.42-3.63-6.73v-.7H34v.7c-2.8.3-3.37.75-3.37 2.26 0 .2 0 .43.04.65l2.88 19.62 9.3-15.94c1.37-2.35 2.17-4.26 2.17-5.1 0-.84-.75-1.28-2.74-1.5v-.7h8.2M36.16 144.87H22.2v-2.92h13.96v2.92"/><path d="M38.75 144.87h-2.6v-2.92h2.6v2.92"/><path d="M52.68 144.87H38.73v-2.92h13.95v2.92M64.15 175.57l-.62 4.38h-.5c-.32-2.6-1.26-3.63-2.8-3.63-1.1 0-1.84.62-1.84 1.78 0 .85.46 1.76 1.68 3.2 1.57 1.8 2.13 3.03 2.13 4.25 0 2.6-1.9 4.2-4.5 4.2-.53 0-1-.03-1.72-.3-.6-.26-1.03-.3-1.38-.3-.34 0-.7.16-.9.66h-.5l.62-4.97h.5c.44 2.98 1.5 4.26 3.13 4.26 1.47 0 2.38-.88 2.38-2.42 0-1-.53-2.06-1.75-3.6-1.35-1.7-1.97-3.1-1.97-4.1 0-2.07 1.48-3.38 3.8-3.38.53 0 .97.1 1.75.3.6.2.88.23 1.13.23.47 0 .7-.13.94-.56h.43"/><path d="M479.74 146.76h149.44v53.35H479.74z" fill-opacity="0"/><path d="M510.2 163.8v.72c-1 .04-1.72.57-2.47 1.77L491.2 193.5h-.83l-3.63-22.27c-1.02-6.2-1.15-6.42-3.63-6.73v-.7h10.64v.7c-2.8.3-3.37.75-3.37 2.25 0 .23 0 .45.04.67l2.9 19.62 9.3-15.95c1.37-2.33 2.16-4.24 2.16-5.08 0-.84-.75-1.28-2.74-1.5v-.7h8.2M495.9 154.86h-13.94v-2.92h13.95v2.92"/><path d="M498.5 154.86h-2.6v-2.92h2.6v2.92"/><path d="M512.42 154.86h-13.95v-2.92h13.95v2.92M517.95 192.4l.5-1.08c.6-1.32 1.66-2.98 2.94-4.32.8-.85 1.74-1.4 2.46-1.4.88 0 1.48.64 1.48 1.58 0 .94-.54 1.7-1.48 1.7-.56 0-.8-.35-1.1-.82-.18-.3-.27-.44-.5-.44-.56 0-1.43 1.04-2.56 2.95-1.35 2.3-1.9 3.57-3.48 8.83h-2.38l2.54-9.15c.44-1.63.5-1.9.5-2.57 0-.65-.56-.8-1.2-.8-.24 0-.5.02-.96.08v-.53l4.85-.84.1.05M570.3 178.55h-26.08v-2.92h26.1v2.92m0 8.86h-26.1v-2.9h26.1v2.9M615.2 163.8v.72c-1 .04-1.7.57-2.47 1.77L596.2 193.5h-.83l-3.63-22.27c-1.02-6.2-1.15-6.42-3.63-6.73v-.7h10.64v.7c-2.8.3-3.37.75-3.37 2.25 0 .23 0 .45.05.67l2.88 19.62 9.3-15.95c1.37-2.33 2.17-4.24 2.17-5.08 0-.84-.76-1.28-2.75-1.5v-.7h8.2M617.3 192.4l.5-1.08c.6-1.32 1.67-2.98 2.96-4.32.8-.85 1.75-1.4 2.47-1.4.88 0 1.47.64 1.47 1.58 0 .94-.53 1.7-1.47 1.7-.56 0-.8-.35-1.1-.82-.18-.3-.28-.44-.5-.44-.56 0-1.44 1.04-2.57 2.95-1.34 2.3-1.9 3.57-3.47 8.83h-2.4l2.55-9.15c.43-1.63.5-1.9.5-2.57 0-.65-.57-.8-1.2-.8-.24 0-.5.02-.96.08v-.53l4.84-.84.1.05"/><path d="M241.38 97.17h46.88v39.6h-46.88z" fill="#fff" fill-opacity="0"/><path d="M259.2 100.36c0 1.2-1.06 2.22-2.2 2.22-1.34 0-2.4-.93-2.4-2.3 0-1.33 1.1-2.3 2.35-2.3 1.2 0 2.25 1.14 2.25 2.38m-1.46 7.1l-4.6 18.15c-1.82 7.18-4.43 10.4-8.28 10.4-2.04 0-3.5-1.1-3.5-2.7 0-1.05.8-1.94 1.8-1.94 1.2 0 1.74.7 1.74 1.64 0 .98-.53.84-.53 1.5 0 .32.26.54.8.54 1.77 0 2.8-1.95 4.3-8.06l3.18-12.93c.53-2.17.7-3.1.7-3.55 0-.97-.52-1.37-2.12-1.37h-1.15v-.7c1.42-.1 3.77-.45 7.5-1.1M288.2 97.93v.7c-1.9.63-3.3 1.64-5.52 4.2l-7.5 8.6 4.48 11.3c1.07 2.65 1.64 3.05 4.65 3.4v.72h-12v-.7c2.67-.06 3.42-.6 3.42-1.65 0-.58-.26-1.37-.62-2.26l-2.96-7.3-6.7 7.6c-.6.72-1 1.52-1 2.14 0 .97.8 1.46 2.9 1.46v.7h-9.42v-.7c2.48-.45 3.68-1.77 9.74-8.86l3.68-4.3-4.56-11.3c-.84-2.1-1.64-2.82-4.2-3.04v-.7h11.64v.7c-2.44.3-3.15.7-3.15 1.8 0 .6.22 1.3.7 2.5l2.62 6.5 6.42-7.4c.62-.7.93-1.37.93-1.9 0-.84-.8-1.42-2.7-1.5v-.7h9.16"/><path d="M463.1 173.43c0 16.2-13.12 29.34-29.32 29.34-16.2 0-29.34-13.14-29.34-29.34s13.14-29.33 29.34-29.33 29.33 13.13 29.33 29.33zm-29.32-14.66h-3.67m3.68 0h3.66m-3.66 0v-3.67m0 3.67v3.66m0 25.67h3.66m-3.66 0h-3.67m3.68-44v-7.33m0 66v7.33M135.33 166.15c0 16.2-13.13 29.33-29.33 29.33-16.2 0-29.33-13.13-29.33-29.33 0-16.2 13.13-29.33 29.33-29.33 16.2 0 29.33 13.13 29.33 29.33zM106 151.48h-3.67m3.67 0h3.67m-3.67 0v-3.66m0 3.66v3.67m0 25.67h3.67m-3.67 0h-3.67m3.67-44v-7.34m0 66v7.34" stroke="#000" stroke-width="2" fill="#fff"/><path d="M106 128.48V90.35h87.82" stroke="#000" stroke-width="2" fill="none"/><path d="M105 129.48v-1.02h2v1.02zM194.82 91.35h-1.03v-2h1.02z"/><path d="M106 203.82v46.28h327.78v-39" stroke="#000" stroke-width="2" fill="none"/><path d="M107 203.84h-2v-1.02h2zM434.78 211.13h-2v-1.03h2z"/><path d="M335.82 90.35h97.96v45.42" stroke="#000" stroke-width="2" fill="none"/><path d="M335.84 91.35h-4.02 3v-2h1.02zM432.78 136.77v-1.03h2v1.03z"/><path d="M365.56 20h18.83v46.72h-18.84z" fill-opacity="0"/><path d="M382.9 37.05v.7c-2.48.32-2.88.72-3.63 3.42l-5.32 19c-.4 1.42-.66 2.48-.66 3.36 0 1.24.52 1.42 3.04 1.73v.7h-10.8v-.7c2.43-.44 3.05-.84 3.72-3.32l5.3-19.53c.32-1.1.6-2.03.6-2.74 0-1.1-.72-1.77-3.2-1.9v-.7h10.94M381.3 28.1h-13.95V25.2h13.95v2.93"/><path d="M384.36 28.1H370.4V25.2h13.96v2.93"/><path d="M358.58 76.67h25.55M358.6 76.67h-1.02" stroke="#000" stroke-width="2" fill="none"/><path d="M399.4 76.67l-14.27 4.64v-9.26z" stroke="#000" stroke-width="2"/></g></svg>