<svg xmlns="http://www.w3.org/2000/svg" xmlns:lucid="lucid" width="498.19" height="275.82"><g lucid:page-tab-id="0_0"><path d="M-30.4-404.48H1840v1323.2H-30.4z" fill="#fff"/><path d="M408.74 45.42h40v40h-40z" fill="none"/><path d="M441.24 65.42c0 6.9-5.6 12.5-12.5 12.5s-12.5-5.6-12.5-12.5 5.6-12.5 12.5-12.5 12.5 5.6 12.5 12.5" stroke="#000" stroke-width="2" fill="#fff"/><path d="M408.74 213.8h40v40h-40z" fill="none"/><path d="M441.24 233.8c0 6.9-5.6 12.5-12.5 12.5s-12.5-5.6-12.5-12.5 5.6-12.5 12.5-12.5 12.5 5.6 12.5 12.5" stroke="#000" stroke-width="2" fill="#fff"/><g fill="none"><path d="M385.14 44.27v211.55H238.2V44.27z"/><path d="M385.14 65.42h-29.4c-28.5 0-36.72 9.47-36.72 21.16 0 11.68 8.22 21.15 18.37 21.15-10.16 0-18.38 9.47-18.38 21.16 0 11.67 8.22 21.14 18.37 21.14-10.16 0-18.38 9.47-18.38 21.16 0 11.68 8.22 21.15 18.37 21.15-10.16 0-18.38 9.47-18.38 21.16 0 11.7 8.22 21.16 18.37 21.16h47.74m-73.47 0V65.42m-7.34 169.24V65.42m-66.12 0h29.4c21.16 0 29.38 9.47 29.38 21.16 0 11.68-8.22 21.15-18.36 21.15 10.14 0 18.36 9.47 18.36 21.16 0 11.67-8.22 21.14-18.36 21.14 10.14 0 18.36 9.47 18.36 21.16 0 11.68-8.22 21.15-18.36 21.15 10.14 0 18.36 9.47 18.36 21.16 0 11.7-8.22 21.16-18.36 21.16h-40.4" stroke="#000" stroke-width="2"/></g><path d="M214.12 55.52v19.8h-45.87v-19.8z" stroke="#000" stroke-width="2" fill="#fff"/><path d="M216.12 65.42h21.1" stroke="#000" stroke-width="2" fill="none"/><path d="M216.14 66.42h-1.02v-2h1.02zM238.2 66.42h-1.02v-2h1.03z"/><path d="M180.18 23.66h22v21.76h-22z" fill="#fff" fill-opacity="0"/><path d="M196.5 24.1v.4c-.75.26-.96.52-1.8 1.58l-5.65 6.96-.93 3.17c-.6 2.04-.78 2.74-.78 3.28 0 .65.36.88 1.37.96l.94.07v.42h-7.45v-.4c1.7-.1 2.28-.45 2.75-2.1l1.52-5.28-1.96-6.88c-.38-1.34-.53-1.55-1.98-1.75v-.4h6.16v.4c-1.54.16-1.85.37-1.85.93 0 .4.3 1.53.93 3.72l.8 2.83 1-1.18c2.7-3.2 3.84-4.8 3.84-5.5 0-.43-.28-.64-1.03-.72l-.75-.07v-.4h4.87M199.6 32.45l-2.78 10.66c-.1.34-.15.65-.15.8 0 .2.13.32.3.32.3 0 .7-.3 1.23-1.04l.46-.63.25.18c-1.08 1.73-1.75 2.28-2.74 2.28-.58 0-.9-.34-.9-1 0-.16.03-.38.08-.56l2.5-9.55c.05-.2.05-.3.05-.36 0-.22-.32-.4-.9-.4h-.33v-.3c1.08-.12 1.75-.24 2.83-.48"/><path d="M34.35 44.27h40v40h-40z" fill="none"/><path d="M66.85 64.27c0 6.9-5.6 12.5-12.5 12.5s-12.5-5.6-12.5-12.5 5.6-12.5 12.5-12.5 12.5 5.6 12.5 12.5" stroke="#000" stroke-width="2" fill="#fff"/><path d="M34.35 212.64h40v40h-40z" fill="none"/><path d="M66.85 232.64c0 6.9-5.6 12.5-12.5 12.5s-12.5-5.6-12.5-12.5 5.6-12.5 12.5-12.5 12.5 5.6 12.5 12.5" stroke="#000" stroke-width="2" fill="#fff"/><path d="M262 189.9l87.78-78.08M262.03 189.9l-.77.67" stroke="#000" stroke-width="2" fill="none"/><path d="M361.2 101.67l-7.6 12.95-6.15-6.93z" stroke="#000" stroke-width="2"/><path d="M262.12 33.76h12.9v18.3h-12.9z" fill="#fff" fill-opacity="0"/><path d="M272.27 51.62h-7.1v-.4c1.9-.1 2.44-.63 2.44-2.05V37.6c0-.88-.22-1.26-.77-1.26-.25 0-.7.12-1.16.3l-.7.26v-.36l4.62-2.34.22.07v15.4c0 1.1.52 1.56 2.45 1.56v.4"/><path d="M338.04 33.76h7.64V49h-7.64z" fill="#fff" fill-opacity="0"/><path d="M345.67 37.24l-.13.82h-2.17l-2.24 8.46c-.03.1-.05.28-.05.36 0 .33.15.4.4.4.4 0 .8-.4 2.07-2.03l.34.18c-1.56 2.37-2.36 3.12-3.7 3.12-.7 0-1.18-.3-1.18-.95 0-.28.2-1.08.4-1.9l2.02-7.64h-1.93l-.02-.15c0-.28.23-.5.85-.64.83-.18 2.5-1.44 3.43-2.83.1-.16.26-.23.36-.23.15 0 .23.07.23.2 0 0 0 .13-.02.18l-.73 2.66h2.07"/><path d="M237.2 234.66H153v-1.15H68.74" stroke="#000" stroke-width="2" fill="none"/><path d="M238.2 235.66h-1.02v-2h1.03z"/><path d="M68.77 233.5h-4.03M166.25 65.4l-98.4-1.12" stroke="#000" stroke-width="2" fill="none"/><path d="M167.25 64.42v2h-1.03l.02-2zM67.73 63.28l.1.86-.98.13 1 .13-.13.88-3.88-.05.02-2z"/><path d="M24.25 137.33H53.7v25.42H24.25z" fill="#fff" fill-opacity="0"/><path d="M41.98 141.62v.42c-.6.02-1 .33-1.44 1.03l-9.6 15.85h-.5l-2.12-12.96c-.6-3.6-.67-3.74-2.1-3.92v-.42h6.18v.42c-1.63.18-1.96.44-1.96 1.3 0 .14 0 .27.02.4l1.68 11.42 5.4-9.28c.8-1.37 1.27-2.48 1.27-2.97 0-.48-.42-.73-1.58-.86v-.42h4.76M38.4 139.18h-8v-1.4h8v1.4M49.17 162.34h-5.03v-.28c1.34-.07 1.73-.45 1.73-1.45v-8.18c0-.62-.17-.9-.55-.9-.18 0-.5.1-.82.23l-.5.18v-.25l3.27-1.66.16.05v10.88c0 .8.37 1.1 1.74 1.1v.3"/><path d="M82.95 20h22v25.42h-22z" fill="#fff" fill-opacity="0"/><path d="M93.04 24.3v.4c-1.45.2-1.68.42-2.12 2l-3.1 11.05c-.22.82-.38 1.44-.38 1.96 0 .73.3.83 1.78 1v.43h-6.3v-.42c1.43-.24 1.8-.48 2.18-1.92l3.1-11.37c.17-.63.33-1.17.33-1.58 0-.65-.42-1.04-1.86-1.1v-.43h6.37M92.93 21.85h-8v-1.4h8v1.4M100.42 45H95.4v-.27c1.33-.07 1.72-.45 1.72-1.45v-8.2c0-.6-.17-.88-.55-.88-.18 0-.5.1-.82.22l-.5.18v-.25l3.27-1.66.17.04v10.88c0 .8.35 1.1 1.72 1.1v.3"/><path d="M448.74 136.9h29.45v25.42h-29.46z" fill="#fff" fill-opacity="0"/><path d="M466.48 141.2v.4c-.6.03-1 .34-1.45 1.04l-9.6 15.85h-.5l-2.1-12.98c-.6-3.6-.68-3.73-2.13-3.9v-.43h6.2v.4c-1.64.2-1.97.44-1.97 1.32 0 .13 0 .26.03.4l1.67 11.4 5.4-9.27c.8-1.37 1.28-2.48 1.28-2.97 0-.5-.43-.75-1.6-.87v-.4h4.78M462.9 138.74h-8.02v-1.4h8v1.4M475.12 159.4l-1 2.5h-7.1v-.2l3.23-3.46c1.7-1.8 2.37-3.2 2.37-4.74 0-1.65-1-2.57-2.53-2.57-1.33 0-1.96.6-2.7 2.37l-.38-.1c.4-2.12 1.55-3.6 3.8-3.6 2.05 0 3.37 1.4 3.37 3.2 0 1.43-.72 2.8-2.35 4.5l-3 3.22h4.26c.78 0 1.16-.2 1.76-1.22"/><path d="M385.14 20h22v25.42h-22z" fill="#fff" fill-opacity="0"/><path d="M395.23 24.3v.4c-1.44.2-1.68.42-2.1 2l-3.1 11.05c-.24.82-.4 1.44-.4 1.96 0 .73.32.83 1.78 1v.43h-6.27v-.42c1.4-.24 1.77-.48 2.16-1.92l3.08-11.37c.18-.63.34-1.17.34-1.58 0-.65-.4-1.04-1.86-1.1v-.43h6.37M395.13 21.85h-8.02v-1.4h8.03v1.4M404.07 42.5l-1 2.5h-7.1v-.2l3.23-3.46c1.7-1.8 2.37-3.2 2.37-4.73 0-1.65-.98-2.56-2.53-2.56-1.3 0-1.95.58-2.68 2.36l-.38-.1c.38-2.12 1.54-3.6 3.8-3.6 2.05 0 3.36 1.4 3.36 3.2 0 1.43-.7 2.8-2.33 4.5l-3 3.22h4.26c.77 0 1.15-.2 1.75-1.22"/><path d="M102.98 64.68l10.4.12M103 64.68H102" stroke="#000" stroke-width="2" fill="none"/><path d="M128.63 64.98l-14.3 4.47.1-9.27z" stroke="#000" stroke-width="2"/><path d="M386.14 65.42h28.1" stroke="#000" stroke-width="2" fill="none"/><path d="M386.16 66.42h-1.02v-2h1.02z"/><path d="M414.2 65.42h4.04M386.14 234.66h28.2" stroke="#000" stroke-width="2" fill="none"/><path d="M385.14 233.66h1.02v2h-1.02z"/><path d="M414.32 234.66h4.03M414.27 65.67h-10.63M414.24 65.67h4.03" stroke="#000" stroke-width="2" fill="none"/><path d="M388.37 65.67l14.27-4.63v9.27z" stroke="#000" stroke-width="2"/><path d="M24.25 75.32H38.6v14.1H24.25z" fill="none"/><path d="M31.43 75.32v14.1m-7.18-7.04H38.6" stroke="#000" stroke-width="2"/><path d="M24.25 75.32H38.6v14.1H24.25zM20 210.65h14.35v15.9H20z" fill="none"/><path d="M20 218.6h14.35" stroke="#000" stroke-width="2"/><path d="M442.88 74h14.35v14.1h-14.35z" fill="none"/><path d="M450.06 74v14.1m-7.18-7.05h14.35" stroke="#000" stroke-width="2"/><path d="M442.88 74h14.35v14.1h-14.35zM438.63 209.33h14.35v15.9h-14.35z" fill="none"/><path d="M438.63 217.28h14.35" stroke="#000" stroke-width="2"/></g></svg>